<svg width="187" height="36" viewBox="0 0 187 36" fill="none" xmlns="http://www.w3.org/2000/svg">
<path d="M108.176 4.75807H114.306V30.2712H109.723V12.0851L102.659 30.2712H98.5135L91.4492 12.0559V30.2712H86.8662V4.75807H92.9964L100.615 24.4329L108.234 4.75807H108.176ZM136.229 20.9592C136.229 22.8274 135.82 24.4913 135.002 25.9801C134.185 27.4396 133.047 28.6073 131.587 29.4246C130.128 30.242 128.434 30.6507 126.566 30.6507C124.698 30.6507 122.947 30.242 121.487 29.3954C120.027 28.5489 118.889 27.4104 118.072 25.9217C117.254 24.4621 116.846 22.7982 116.846 20.9592C116.846 19.1201 117.254 17.427 118.072 15.9675C118.889 14.5079 120.057 13.3695 121.516 12.5229C122.976 11.6764 124.669 11.2677 126.566 11.2677C128.464 11.2677 130.128 11.6764 131.587 12.4937C133.047 13.3111 134.185 14.4787 135.002 15.9383C135.82 17.3979 136.229 19.0909 136.229 20.9592ZM131.821 20.9592C131.821 19.8499 131.616 18.8282 131.178 17.9525C130.741 17.0768 130.128 16.3762 129.31 15.9091C128.522 15.442 127.588 15.2085 126.566 15.2085C125.545 15.2085 124.61 15.442 123.793 15.9091C123.005 16.3762 122.363 17.0476 121.925 17.9233C121.487 18.799 121.253 19.8207 121.253 20.9592C121.253 22.0976 121.487 23.1193 121.925 23.9951C122.363 24.8708 123.005 25.5422 123.793 26.0093C124.581 26.4763 125.515 26.7098 126.566 26.7098C127.617 26.7098 128.493 26.4763 129.31 26.0093C130.098 25.5422 130.741 24.8708 131.178 23.9951C131.616 23.1193 131.821 22.0976 131.821 20.9592ZM157.217 4.37859V30.242H152.809V28.0818C152.225 28.87 151.466 29.483 150.503 29.9501C149.569 30.4171 148.43 30.6507 147.117 30.6507C145.424 30.6507 143.906 30.242 142.592 29.4538C141.279 28.6657 140.257 27.5272 139.527 26.0676C138.797 24.6081 138.447 22.8858 138.447 20.93C138.447 18.9742 138.797 17.3103 139.498 15.8507C140.199 14.3912 141.191 13.2527 142.475 12.4354C143.76 11.618 145.249 11.2093 146.971 11.2093C148.314 11.2093 149.452 11.4137 150.415 11.8515C151.379 12.2894 152.167 12.8732 152.809 13.6322V4.29102H157.217V4.37859ZM152.955 20.9592C152.955 19.8499 152.751 18.8282 152.342 17.9525C151.933 17.0768 151.35 16.3762 150.591 15.9091C149.832 15.442 148.956 15.2085 147.934 15.2085C146.854 15.2085 145.949 15.442 145.19 15.9091C144.431 16.3762 143.847 17.0768 143.439 17.9525C143.03 18.8282 142.826 19.8499 142.826 20.9592C142.826 22.0684 143.03 23.0901 143.439 23.9659C143.847 24.8416 144.431 25.5422 145.219 26.0093C146.008 26.4763 146.912 26.7098 147.963 26.7098C149.014 26.7098 149.832 26.4763 150.591 26.0093C151.35 25.5422 151.933 24.8416 152.371 23.9659C152.78 23.0901 152.984 22.0684 152.984 20.9592H152.955ZM178.556 11.6764V30.2712H174.148V28.1694C173.535 28.9576 172.776 29.5706 171.813 30.0084C170.878 30.4463 169.74 30.6798 168.426 30.6798C166.733 30.6798 165.215 30.2712 163.902 29.483C162.588 28.6948 161.566 27.5564 160.866 26.0968C160.136 24.6373 159.786 22.915 159.786 20.9592C159.786 19.0034 160.136 17.3395 160.837 15.8799C161.537 14.4204 162.53 13.2819 163.814 12.4645C165.099 11.6472 166.587 11.2385 168.31 11.2385C169.682 11.2385 170.849 11.472 171.842 11.9391C172.834 12.4062 173.593 13.0192 174.148 13.7781V11.618H178.556V11.6764ZM174.294 20.9592C174.294 19.8499 174.089 18.8282 173.681 17.9525C173.272 17.0768 172.688 16.3762 171.929 15.9091C171.17 15.442 170.295 15.2085 169.273 15.2085C168.193 15.2085 167.288 15.442 166.529 15.9091C165.77 16.3762 165.186 17.0768 164.777 17.9525C164.369 18.8282 164.164 19.8499 164.164 20.9592C164.164 22.0684 164.369 23.0901 164.777 23.9659C165.186 24.8416 165.77 25.5422 166.558 26.0093C167.346 26.4763 168.251 26.7098 169.302 26.7098C170.353 26.7098 171.17 26.4763 171.929 26.0093C172.688 25.5422 173.272 24.8416 173.71 23.9659C174.119 23.0901 174.323 22.0684 174.323 20.9592H174.294ZM182.234 4.37859V30.242H186.642V4.37859H182.234Z" fill="#DFFFDD"/>
<path d="M27.1396 0.729779L33.4741 11.6765L20.4256 34.2996C20.1629 34.7375 19.6959 35.0294 19.1704 35.0294H7.37719C7.11447 35.0294 6.85175 34.971 6.64741 34.8251C6.44307 34.7083 6.23873 34.504 6.12197 34.2996L0.225361 24.0827C-0.0373598 23.6449 -0.0373598 23.061 0.225361 22.6232L12.8651 0.729779C12.9819 0.49625 13.1862 0.321102 13.3906 0.204337C13.5949 0.0875726 13.8576 0 14.1204 0H25.9136C26.439 0 26.9061 0.291912 27.1688 0.729779H27.1396ZM66.752 22.6232L54.1123 0.729779C53.9955 0.49625 53.7912 0.321102 53.5868 0.204337C53.3825 0.0875726 53.1198 0 52.857 0H41.0638C40.5384 0 40.0713 0.291912 39.8086 0.729779L33.4741 11.6765L46.5226 34.2996C46.7853 34.7375 47.2523 35.0294 47.7778 35.0294H59.571C59.8337 35.0294 60.0965 34.971 60.3008 34.8251C60.5051 34.7083 60.7095 34.504 60.8262 34.2996L66.7229 24.0827C66.9856 23.6449 66.9856 23.061 66.7229 22.6232H66.752Z" fill="#62DE61"/>
<path d="M19.9877 11.6765H33.474L27.1396 0.729779C26.8768 0.291912 26.4098 0 25.8843 0H14.0911C13.8284 0 13.5657 0.0583815 13.3613 0.204337L19.9877 11.6765Z" fill="url(#paint0_linear_211_149)"/>
<path d="M19.9887 11.6765L13.3623 0.204346C13.1579 0.32111 12.9536 0.52545 12.8368 0.729788L0.19704 22.6232C-0.0656802 23.061 -0.0656802 23.6449 0.19704 24.0827L6.09367 34.2996C6.21044 34.5332 6.41477 34.7083 6.61911 34.8251L19.9887 11.6765Z" fill="url(#paint1_linear_211_149)"/>
<path d="M33.475 11.6765H19.9887L6.61914 34.8251C6.82348 34.9419 7.0862 35.0295 7.34892 35.0295H19.1421C19.6676 35.0295 20.1346 34.7375 20.3974 34.2997L33.4458 11.6765H33.475Z" fill="#09AF58"/>
<path d="M66.7539 24.0827C66.8707 23.8492 66.9583 23.6156 66.9583 23.3529H53.7055L47.0791 34.825C47.2834 34.9418 47.5462 35.0294 47.8089 35.0294H59.6021C60.1275 35.0294 60.5946 34.7375 60.8573 34.2996L66.7539 24.0827Z" fill="#09AF58"/>
<path d="M41.0354 0C40.7727 0 40.51 0.0583815 40.3057 0.204337L53.6752 23.3529H66.928C66.928 23.0902 66.8696 22.8567 66.7237 22.6232L54.0839 0.729779C53.8212 0.291912 53.3541 0 52.8287 0H41.0354Z" fill="url(#paint2_linear_211_149)"/>
<path d="M47.0474 34.8251L53.6738 23.3529L40.3043 0.204346C40.0999 0.32111 39.8956 0.52545 39.7788 0.729788L33.4443 11.6765L46.4928 34.2996C46.6096 34.5332 46.8139 34.7083 47.0182 34.8251H47.0474Z" fill="url(#paint3_linear_211_149)"/>
<defs>
<linearGradient id="paint0_linear_211_149" x1="28.3948" y1="-52.5441" x2="18.4114" y2="-52.5441" gradientUnits="userSpaceOnUse">
<stop stop-color="#BFF9B4"/>
<stop offset="1" stop-color="#80EE64"/>
</linearGradient>
<linearGradient id="paint1_linear_211_149" x1="1.56903" y1="31.906" x2="18.2372" y2="3.0067" gradientUnits="userSpaceOnUse">
<stop stop-color="#80EE64"/>
<stop offset="0.18" stop-color="#7BEB63"/>
<stop offset="0.36" stop-color="#6FE562"/>
<stop offset="0.55" stop-color="#5ADA60"/>
<stop offset="0.74" stop-color="#3DCA5D"/>
<stop offset="0.93" stop-color="#18B759"/>
<stop offset="1" stop-color="#09AF58"/>
</linearGradient>
<linearGradient id="paint2_linear_211_149" x1="62.0531" y1="26.1845" x2="45.385" y2="-2.7148" gradientUnits="userSpaceOnUse">
<stop stop-color="#BFF9B4"/>
<stop offset="1" stop-color="#80EE64"/>
</linearGradient>
<linearGradient id="paint3_linear_211_149" x1="51.9515" y1="32.0227" x2="35.2542" y2="3.12346" gradientUnits="userSpaceOnUse">
<stop stop-color="#80EE64"/>
<stop offset="0.18" stop-color="#7BEB63"/>
<stop offset="0.36" stop-color="#6FE562"/>
<stop offset="0.55" stop-color="#5ADA60"/>
<stop offset="0.74" stop-color="#3DCA5D"/>
<stop offset="0.93" stop-color="#18B759"/>
<stop offset="1" stop-color="#09AF58"/>
</linearGradient>
</defs>
</svg>
