<svg width="300" height="300" viewBox="0 0 300 300" fill="none" xmlns="http://www.w3.org/2000/svg">
<path d="M121.683 75.25L149.997 124L91.4816 224.75C90.3128 226.757 88.155 228 85.8174 228H32.9664C31.7976 228 30.6778 227.691 29.697 227.131C28.7161 226.57 27.8906 225.758 27.3021 224.75L0.876625 179.25C-0.292208 177.243 -0.292208 174.765 0.876625 172.75L57.512 75.25C58.0923 74.2425 58.9259 73.43 59.9068 72.8694C60.8876 72.3088 62.0074 72 63.1762 72H116.027C118.365 72 120.523 73.2431 121.692 75.25H121.683ZM299.125 172.75L242.49 75.25C241.91 74.2425 241.076 73.43 240.095 72.8694C239.114 72.3088 237.995 72 236.826 72H183.975C181.637 72 179.479 73.2431 178.311 75.25L149.997 124L208.512 224.75C209.681 226.757 211.839 228 214.177 228H267.027C268.196 228 269.316 227.691 270.297 227.131C271.278 226.57 272.103 225.758 272.692 224.75L299.117 179.25C300.286 177.243 300.286 174.765 299.117 172.75H299.125Z" fill="#62DE61"/>
<path d="M89.6018 124H150.005L121.692 75.25C120.523 73.2431 118.365 72 116.027 72H63.1763C62.0074 72 60.8876 72.3088 59.9068 72.8694L89.6018 124Z" fill="url(#paint0_linear_380_261)"/>
<path d="M89.6018 124L59.9068 72.8694C58.9259 73.43 58.1005 74.2425 57.512 75.25L0.876625 172.75C-0.292208 174.765 -0.292208 177.235 0.876625 179.25L27.3021 224.75C27.8825 225.758 28.7161 226.57 29.697 227.131L89.5936 124H89.6018Z" fill="url(#paint1_linear_380_261)"/>
<path d="M149.997 124H89.5936L29.697 227.131C30.6778 227.691 31.7976 228 32.9664 228H85.8174C88.155 228 90.3128 226.757 91.4816 224.75L149.997 124Z" fill="#09AF58"/>
<path d="M299.125 179.25C299.706 178.243 300 177.121 300 176H240.61L210.915 227.131C211.896 227.691 213.016 228 214.185 228H267.036C269.373 228 271.531 226.757 272.7 224.75L299.125 179.25Z" fill="#09AF58"/>
<path d="M183.975 72C182.806 72 181.686 72.3088 180.705 72.8694L240.602 176H299.992C299.992 174.879 299.698 173.758 299.117 172.75L242.49 75.25C241.321 73.2431 239.163 72 236.826 72H183.967H183.975Z" fill="url(#paint2_linear_380_261)"/>
<path d="M210.907 227.131L240.602 176L180.705 72.8694C179.725 73.43 178.899 74.2425 178.311 75.25L149.997 124L208.512 224.75C209.093 225.758 209.926 226.57 210.907 227.131Z" fill="url(#paint3_linear_380_261)"/>
<defs>
<linearGradient id="paint0_linear_380_261" x1="127.348" y1="137" x2="82.9561" y2="59.6398" gradientUnits="userSpaceOnUse">
<stop stop-color="#BFF9B4"/>
<stop offset="1" stop-color="#80EE64"/>
</linearGradient>
<linearGradient id="paint1_linear_380_261" x1="7.04774" y1="214.131" x2="81.1284" y2="85.0556" gradientUnits="userSpaceOnUse">
<stop stop-color="#80EE64"/>
<stop offset="0.18" stop-color="#7BEB63"/>
<stop offset="0.36" stop-color="#6FE562"/>
<stop offset="0.55" stop-color="#5ADA60"/>
<stop offset="0.74" stop-color="#3DCA5D"/>
<stop offset="0.93" stop-color="#18B759"/>
<stop offset="1" stop-color="#09AF58"/>
</linearGradient>
<linearGradient id="paint2_linear_380_261" x1="278.103" y1="188.561" x2="204.022" y2="59.4863" gradientUnits="userSpaceOnUse">
<stop stop-color="#BFF9B4"/>
<stop offset="1" stop-color="#80EE64"/>
</linearGradient>
<linearGradient id="paint3_linear_380_261" x1="232.804" y1="214.569" x2="158.724" y2="85.4864" gradientUnits="userSpaceOnUse">
<stop stop-color="#80EE64"/>
<stop offset="0.18" stop-color="#7BEB63"/>
<stop offset="0.36" stop-color="#6FE562"/>
<stop offset="0.55" stop-color="#5ADA60"/>
<stop offset="0.74" stop-color="#3DCA5D"/>
<stop offset="0.93" stop-color="#18B759"/>
<stop offset="1" stop-color="#09AF58"/>
</linearGradient>
</defs>
</svg>
