<svg xmlns="http://www.w3.org/2000/svg" width="195" height="128" viewBox="0 0 195 128" fill="none">
  <path d="M93.3093 38.1116C93.1927 38.4181 93.1071 38.6538 93.0134 38.8875C92.3629 40.4914 91.707 42.0932 91.0537 43.6948C90.9532 43.9422 90.8608 44.1915 90.7522 44.4343C90.6345 44.6963 90.6531 44.9523 90.7636 45.2085C90.8804 45.4774 91.0098 45.7399 91.1113 46.0153C91.4955 47.0714 91.5349 48.1533 91.2939 49.2426C90.7646 51.6143 89.7986 53.7882 88.3441 55.7423C87.7316 56.5654 86.9209 57.0895 85.9619 57.4079C85.5578 57.5411 85.1428 57.6384 84.7349 57.7588C84.6323 57.7883 84.5298 57.8204 84.4367 57.8702C84.2686 57.9655 84.2354 58.0734 84.3534 58.2291C84.4953 58.4197 84.6648 58.5949 84.8214 58.7738C85.2073 59.2149 85.6104 59.6414 85.9791 60.097C86.3656 60.5774 86.6396 61.1276 86.868 61.6973C86.9114 61.8093 86.9472 61.9246 87.0056 62.0275C87.4024 62.7278 87.3167 63.439 87.0361 64.1454C86.886 64.523 86.5879 64.7631 86.2355 64.9498C85.7671 65.1961 85.2596 65.3195 84.7379 65.3337C84.0588 65.3503 83.3762 65.3568 82.703 65.2863C82.165 65.2309 81.6367 65.0696 81.1123 64.9237C80.6631 64.7979 80.2307 64.6208 79.7881 64.4787C79.4778 64.3809 79.4352 64.4054 79.2886 64.6986C79.2009 64.8767 79.1298 65.0665 79.034 65.2425C78.8309 65.614 78.6057 65.9742 78.4082 66.3505C78.1815 66.787 77.9494 67.2213 77.7636 67.6755C77.3765 68.6192 76.884 69.4954 76.2345 70.2847C76.0673 70.4877 75.9375 70.7297 75.8341 70.9721C75.3474 72.1106 74.8771 73.2556 74.3987 74.3987C74.3526 74.5076 74.3207 74.6311 74.255 74.7258C73.7658 75.4205 73.4706 76.2042 73.1973 76.9993C72.6321 78.6487 72.0587 80.2962 71.4826 81.9414C71.4292 82.0903 71.3625 82.2377 71.2818 82.3731C70.5304 83.6149 69.7819 84.8591 69.0194 86.0939C68.7318 86.5565 68.4138 87.0005 68.104 87.4492C67.8859 87.7667 67.6513 88.0751 67.4388 88.3975C67.1077 88.9056 66.6588 89.2291 66.0568 89.3209C65.7273 89.3717 65.398 89.4252 65.0668 89.4552C63.4886 89.5935 61.9069 89.7215 60.3283 89.8545C60.25 89.861 60.1691 89.8677 60.0917 89.8846C59.7711 89.9478 59.6803 90.0578 59.7227 90.3801C59.7893 90.8686 59.8714 91.3532 59.9511 91.8405C60.0494 92.4578 60.1529 93.0746 60.2487 93.6946C60.2758 93.8632 60.2744 94.0367 60.2886 94.2089C60.305 94.4073 60.3007 94.6099 60.343 94.8035C60.6184 96.1339 60.886 97.465 61.1871 98.788C61.5467 100.374 61.8931 101.959 62.0428 103.581C62.1591 104.83 62.2496 105.193 62.5933 105.95C62.8693 105.762 63.1467 105.589 63.4033 105.387C63.9263 104.975 64.4316 104.54 64.9575 104.131C65.1968 103.943 65.4594 103.782 65.7198 103.627C65.9602 103.483 66.2195 103.378 66.4628 103.237C68.5878 101.989 70.9414 101.345 73.2794 100.671C74.2623 100.388 75.2498 100.096 76.2739 99.9932C77.6316 99.8574 78.9872 99.8558 80.3233 100.158C80.6634 100.235 81.0077 100.396 81.2951 100.598C81.7165 100.897 82.1031 101.251 82.4745 101.612C83.6919 102.799 84.207 104.264 84.1489 105.946C84.1369 106.278 84.0801 106.608 84.0707 106.94C84.0583 107.298 84.0798 107.654 84.0832 108.014C84.0833 108.174 84.0941 108.336 84.0674 108.49C83.9351 109.211 83.7948 109.929 83.6464 110.646C83.4943 111.381 83.1796 112.024 82.6212 112.549C82.3894 112.765 82.1955 113.025 82.0037 113.28C81.123 114.451 80.0407 115.408 78.8519 116.252C78.2984 116.645 77.7155 117 77.1942 117.432C76.1615 118.29 74.9751 118.845 73.7161 119.254C72.6799 119.592 71.6306 119.899 70.5729 120.168C69.9037 120.336 69.211 120.412 68.5292 120.523C67.5314 120.69 66.5387 120.887 65.5342 121.004C64.6651 121.108 63.7829 121.146 62.9065 121.161C62.3554 121.17 61.8308 120.99 61.3461 120.72C60.6244 120.317 59.9051 119.911 59.1928 119.495C58.6157 119.156 58.105 118.73 57.6297 118.257C57.498 118.126 57.3518 118.01 57.2055 117.893C56.868 117.624 56.5925 117.31 56.3724 116.937C56.2043 116.651 56.0106 116.373 55.7859 116.134C55.2294 115.536 54.9366 114.822 54.803 114.032C54.5947 112.783 54.5036 111.521 54.4621 110.256C54.4391 109.564 54.4424 108.872 54.4168 108.181C54.4066 107.93 54.3622 107.678 54.3076 107.431C54.1042 106.528 54.0679 105.611 54.0105 104.694C53.9299 103.431 53.8623 102.168 53.7869 100.905C53.7173 99.7755 53.6581 98.6453 53.5728 97.5173C53.4517 95.9245 53.328 94.332 53.1728 92.7394C53.1001 91.9861 52.9647 91.2379 52.8372 90.4891C52.7616 90.0513 52.7047 89.9982 52.2665 89.974C51.8442 89.951 51.4173 89.9679 50.9924 89.9767C50.0849 89.9965 49.1954 90.1698 48.2987 90.2886C47.7867 90.3571 47.2648 90.3372 46.7464 90.359C46.2149 90.3819 45.6838 90.41 45.1493 90.4279C44.6307 90.4471 44.112 90.4663 43.5949 90.4722C43.3035 90.4752 43.0918 90.5847 42.9281 90.8294C42.1146 92.0501 41.2145 93.2096 40.2008 94.2655C39.0611 95.4501 37.6636 96.2487 36.0841 96.6892C35.591 96.8271 35.0591 96.8448 34.5426 96.8586C33.9972 96.8721 33.4503 96.8358 32.9075 96.7861C32.6216 96.7598 32.3381 96.6676 32.0626 96.5773C31.8113 96.493 31.5768 96.3574 31.3276 96.2676C30.0117 95.7956 28.9139 94.9746 27.8825 94.0666C26.8821 93.1849 26.0915 92.1388 25.5536 90.9062C25.4333 90.6272 25.28 90.3613 25.1075 90.0235C25.0063 90.1974 24.9292 90.3141 24.8711 90.4371C24.6367 90.94 24.31 91.3742 23.8846 91.7273C23.0952 92.381 22.3029 93.0324 21.5135 93.6862C20.7341 94.3339 19.8513 94.7799 18.8851 95.0752C17.996 95.3483 17.1183 95.6652 16.2291 95.9383C15.773 96.0784 15.3027 96.2382 14.8339 96.2559C13.9986 96.2907 13.1559 96.2684 12.3246 96.1925C11.1702 96.0856 10.1428 95.6081 9.22587 94.9088C8.56972 94.4086 7.93729 93.8775 7.30704 93.341C6.74481 92.8646 6.448 92.2296 6.33087 91.5115C6.00047 89.5156 6.30847 87.6141 7.20202 85.8035C7.731 84.7325 8.40997 83.7594 9.19282 82.8671C10.1121 81.8137 11.0684 80.7941 12.0331 79.7816C12.802 78.9745 13.7288 78.362 14.6895 77.8096C16.2825 76.8951 17.8908 76.0081 19.5056 75.1364C20.3558 74.6773 21.2871 74.4375 22.2271 74.2389C22.5912 74.1616 22.9551 74.0816 23.3153 73.9888C24.2436 73.7439 25.191 73.7944 26.1339 73.7901C26.5569 73.7893 26.9881 73.8246 27.404 73.898C28.6647 74.1144 29.6568 74.7682 30.2046 75.9289C30.9022 77.4084 31.6259 78.8857 32.0717 80.4648C32.2504 81.1016 32.3317 81.7676 32.4358 82.4237C32.6363 83.6736 33.2357 84.7276 33.997 85.7052C34.1997 85.9644 34.4747 86.0809 34.802 86.067C35.069 86.0555 35.3341 86.052 35.5994 86.0196C35.9531 85.9746 36.2815 85.8476 36.4903 85.544C36.8068 85.0817 37.1096 84.6126 37.3931 84.132C37.4552 84.0244 37.4553 83.8352 37.406 83.7158C37.2997 83.446 37.189 83.1557 36.9984 82.9481C35.7307 81.5656 34.7483 79.9783 33.7387 78.4116C33.3197 77.7605 32.9742 77.077 32.6583 76.37C32.3678 75.7161 31.9709 75.1104 31.6172 74.4854C30.8633 73.1524 30.0871 71.8345 29.3634 70.4859C29.0062 69.8192 28.7421 69.1027 28.4429 68.4074C28.2543 67.9685 28.0908 67.5169 27.892 67.0814C27.5111 66.2563 27.4324 65.4299 27.7629 64.5644C27.8988 64.2063 27.9667 63.8198 28.0459 63.4427C28.246 62.4934 28.6292 61.6289 29.1471 60.8057C29.9248 59.5644 30.6609 58.2975 31.4136 57.0399C32.4593 55.2903 33.5022 53.5383 34.5425 51.7865C34.637 51.6263 34.7285 51.4611 34.793 51.2876C35.1431 50.3732 35.6032 49.5181 36.1681 48.7226C37.1383 47.3628 37.9374 45.9043 38.7031 44.4222C38.866 44.1039 39.0615 43.7987 39.2716 43.5108C39.8168 42.7642 40.2465 41.9536 40.6348 41.1201C41.7863 38.6471 42.8717 36.1375 44.108 33.7048C45.767 30.441 47.3434 27.1316 49.2028 23.9721C49.6959 23.1352 50.1091 22.2524 50.5553 21.3879C51.4882 19.5767 52.4211 17.7655 53.3458 15.9497C53.7865 15.083 54.1916 14.1982 54.6355 13.3365C55.272 12.1042 56.2926 11.4182 57.6749 11.2935C58.2981 11.2368 58.9238 11.2403 59.5481 11.1966C60.4258 11.1346 61.2988 11.0467 62.1765 10.9847C62.7591 10.9445 63.3439 10.9303 63.9278 10.9057C64.2997 10.8908 64.6728 10.8915 65.0445 10.8739C65.8267 10.833 66.6111 10.7865 67.3921 10.7299C68.2148 10.6698 69.0371 10.573 69.8615 10.5338C70.9527 10.4805 72.0444 10.4638 73.135 10.4342C73.2268 10.4319 73.3189 10.4663 73.4107 10.464C73.6993 10.4585 74.0017 10.494 74.2769 10.4213C75.2158 10.1782 76.1779 10.1828 77.1333 10.1065C78.1539 10.0249 79.1803 9.98211 80.2033 9.92914C80.5617 9.91005 80.9216 9.90922 81.2821 9.91622C81.6848 9.92499 81.8617 10.0628 81.9521 10.4573C82.0467 10.8699 82.2417 11.2269 82.515 11.5459C82.9076 12.0048 83.2352 12.5032 83.4477 13.0716C83.4848 13.171 83.5398 13.2637 83.5997 13.3533C84.5442 14.7362 85.219 16.257 85.904 17.7743C86.1613 18.3442 86.464 18.892 86.7365 19.4554C86.9804 19.9581 87.2497 20.4509 87.4452 20.9733C88.061 22.6067 88.8086 24.1819 89.5637 25.7538C90.0178 26.7016 90.4744 27.6492 90.9513 28.5872C91.2462 29.1672 91.5815 29.7281 91.8943 30.3013C92.1607 30.7916 92.4224 31.2876 92.6863 31.7782C92.7916 31.9718 92.8995 32.1652 93.0198 32.3812C93.2929 32.1879 93.382 31.9309 93.4455 31.6813C93.6152 30.9999 93.9275 30.3908 94.2715 29.7844C94.4735 29.4314 94.6006 29.0294 94.7261 28.6406C94.8414 28.2869 94.9137 27.921 94.9992 27.5566C95.2657 26.4257 95.6569 25.3398 96.1097 24.2698C96.4419 23.4883 96.6544 22.6562 96.9755 21.8677C97.6551 20.2035 98.3731 18.5572 99.0662 16.8972C99.2131 16.5435 99.3134 16.1673 99.4439 15.8071C99.5169 15.6093 99.5697 15.3894 99.6926 15.2243C100.604 13.985 101.174 12.5795 101.722 11.1627C101.895 10.7148 102.058 10.2653 102.217 9.81327C102.405 9.2828 102.766 8.94295 103.311 8.80069C103.722 8.69313 104.14 8.59558 104.541 8.46256C105.122 8.2727 105.724 8.11265 106.26 7.83186C107.129 7.37647 108.038 7.05442 108.983 6.81872C109.719 6.63441 110.464 6.48882 111.201 6.32016C111.616 6.22543 112.031 6.12549 112.443 6.01531C112.839 5.91165 113.235 5.91042 113.626 6.03052C114.014 6.14823 114.409 6.15765 114.812 6.13489C115.597 6.0937 116.38 6.071 117.166 6.03765C117.352 6.03017 117.541 6.03031 117.722 5.99173C118.785 5.75938 119.867 5.7856 120.944 5.77551C121.621 5.76948 122.304 5.83129 122.978 5.78611C123.491 5.7543 124.003 5.62789 124.505 5.49712C125.284 5.2961 126.075 5.20186 126.874 5.17264C127.398 5.15302 127.834 5.34557 128.182 5.74247C128.795 6.44596 129.417 7.14077 130.022 7.85013C130.273 8.14475 130.562 8.3074 130.947 8.32812C131.385 8.35236 131.822 8.39508 132.26 8.44041C133.654 8.5906 134.866 9.17361 135.933 10.0603C136.382 10.4358 136.819 10.8332 137.212 11.2632C137.515 11.5928 137.783 11.9701 137.996 12.3623C138.859 13.9596 139.394 15.6679 139.617 17.473C139.678 17.9619 139.779 18.4475 139.806 18.9366C139.843 19.5773 139.767 20.2116 139.592 20.8329C139.507 21.1369 139.525 21.1617 139.806 21.2909C140.158 21.4509 140.514 21.5975 140.867 21.7576C141.607 22.0959 142.071 22.6566 142.242 23.4596C142.29 23.6947 142.364 23.9225 142.428 24.1537C142.533 24.5339 142.741 24.853 143.004 25.144C143.377 25.5598 143.724 25.9989 144.094 26.4175C144.445 26.8168 144.816 27.1988 145.172 27.5924C145.368 27.81 145.555 28.0337 145.734 28.2658C148.007 31.1943 150.464 33.9657 153.002 36.6647C153.898 37.618 154.747 38.6042 155.448 39.7128C155.702 40.1149 156.023 40.4772 156.334 40.8404C157.149 41.79 157.968 42.7365 158.797 43.6744C159.307 44.2523 159.839 44.8126 160.364 45.3815C160.483 45.5083 160.601 45.6352 160.714 45.7651C161.315 46.459 161.929 47.144 162.513 47.8551C163.053 48.512 163.567 49.1948 164.08 49.8749C164.44 50.3523 164.773 50.8529 165.131 51.3331C165.575 51.9323 165.748 52.5959 165.635 53.3278C165.524 54.0517 165.373 54.7683 165.063 55.4403C164.936 55.7135 164.897 56.0032 164.94 56.2991C165.084 57.2883 164.857 58.1925 164.385 59.067C163.893 59.9774 163.643 60.9623 163.481 61.9873C163.344 62.8499 163.094 63.7008 162.84 64.539C162.491 65.6871 162.066 66.8048 161.415 67.8281C161.257 68.0777 161.159 68.3905 161.118 68.6856C160.983 69.6321 160.691 70.5206 160.303 71.3909C159.849 72.4111 159.433 73.4491 158.987 74.4739C158.817 74.8637 158.639 75.2541 158.422 75.6189C158.143 76.0938 158.164 76.5046 158.518 76.9379C159.17 77.7431 159.624 78.6568 159.937 79.6452C160.229 80.5722 160.707 81.4024 161.363 82.1181C162.099 82.9217 162.561 83.8741 162.9 84.8892C163.03 85.2805 163.211 85.6256 163.519 85.8943C163.83 86.1629 163.963 86.4962 163.891 86.891C163.834 87.1952 163.902 87.4708 164.006 87.7459C164.302 88.5308 164.601 89.3153 164.891 90.1006C165.006 90.4116 165.117 90.7283 165.204 91.0496C165.429 91.9033 165.766 92.7084 166.173 93.492C166.725 94.5551 167.246 95.6341 167.778 96.7068C168.065 97.2822 168.188 97.3088 168.71 96.9503C169.51 96.3981 170.308 95.8435 171.127 95.3213C172.33 94.552 173.48 93.716 174.591 92.8202C174.857 92.6064 175.176 92.4592 175.465 92.275C175.588 92.1966 175.698 92.1034 175.814 92.015C176.185 91.7347 176.529 91.4094 176.928 91.182C178.17 90.4777 179.477 89.9178 180.836 89.4797C181.212 89.3567 181.593 89.3516 181.979 89.3827C182.111 89.3928 182.247 89.4131 182.377 89.3971C183.446 89.2616 184.504 89.3843 185.564 89.4912C186.054 89.5401 186.543 89.6074 187.032 89.6432C188.378 89.7422 189.562 90.2435 190.611 91.0764C190.912 91.317 191.199 91.577 191.486 91.8345C192.269 92.5344 192.614 93.4097 192.614 94.4607C192.611 95.9481 192.258 97.3305 191.545 98.6295C191.25 99.1662 190.958 99.7027 190.669 100.244C190.034 101.429 189.216 102.469 188.248 103.403C187.96 103.679 187.722 104.006 187.438 104.284C187.059 104.657 186.66 105.011 186.263 105.361C185.935 105.651 185.575 105.91 185.259 106.214C184.305 107.134 183.253 107.925 182.14 108.634C181.928 108.77 181.691 108.866 181.467 108.984C180.913 109.272 180.344 109.534 179.808 109.857C178.774 110.481 177.671 110.929 176.527 111.302C176.463 111.323 176.39 111.324 176.338 111.357C175.527 111.853 174.607 112.034 173.714 112.294C173.268 112.426 172.828 112.58 172.386 112.73C171.739 112.946 171.081 113.09 170.397 113.141C169.394 113.216 168.443 113.536 167.471 113.761C166.979 113.875 166.479 113.961 165.98 114.031C165.178 114.145 164.368 114.233 163.565 114.338C162.699 114.452 161.837 114.381 160.973 114.329C159.851 114.262 158.837 113.891 157.914 113.273C157.383 112.921 156.849 112.557 156.375 112.134C155.419 111.28 154.858 110.189 154.646 108.927C154.557 108.39 154.536 107.843 154.439 107.307C154.33 106.72 154.359 106.152 154.458 105.566C154.545 105.057 154.552 104.534 154.545 104.014C154.536 103.292 154.582 102.576 154.707 101.867C155.023 100.091 155.14 98.2999 155.144 96.4997C155.146 95.4748 155.127 94.4465 155.014 93.4311C154.911 92.5094 154.691 91.5948 154.482 90.6872C154.066 88.885 153.61 87.0913 153.185 85.2897C152.962 84.336 152.504 83.4726 152.192 82.5525C152.112 82.3121 152.024 82.075 151.931 81.841C151.814 81.5458 151.725 81.4848 151.426 81.4859C150.798 81.4905 150.186 81.5857 149.577 81.7464C148.949 81.9112 148.296 81.9888 147.652 82.084C147.193 82.1509 146.728 82.1841 146.264 82.2329C146.04 82.2566 145.816 82.283 145.589 82.2965C144.982 82.3283 144.749 82.5288 144.664 83.1244C144.335 85.4427 144.007 87.7637 143.689 90.0838C143.58 90.8678 143.31 91.6074 143.059 92.3508C142.609 93.6806 142.044 94.9569 141.278 96.137C141.205 96.2481 141.136 96.3641 141.083 96.4867C140.589 97.6574 139.813 98.6437 138.979 99.5797C138.051 100.621 136.886 101.248 135.474 101.364C135.396 101.371 135.313 101.38 135.235 101.366C134.691 101.266 134.166 101.341 133.623 101.446C132.403 101.689 131.194 101.494 130.061 101.036C128.599 100.448 127.211 99.7084 126.088 98.5609C125.073 97.5229 124.054 96.4877 123.046 95.4438C122.52 94.8987 122.392 94.904 122.158 95.6039C121.832 96.5846 121.3 97.4273 120.602 98.1812C119.426 99.4555 118.217 100.693 116.838 101.753C115.546 102.748 114.144 103.526 112.535 103.858C111.775 104.016 111.047 104.26 110.304 104.463C109.59 104.659 108.838 104.721 108.104 104.839C105.926 105.192 103.918 104.736 102.089 103.52C101.043 102.826 100.247 101.87 99.5325 100.852C98.9757 100.06 98.5908 99.1849 98.3862 98.2349C98.2069 97.4011 98.2454 96.5623 98.3447 95.7291C98.4081 95.1931 98.5749 94.667 98.6966 94.1367C98.7453 93.9303 98.8046 93.7257 98.8397 93.5153C98.9871 92.6281 99.2589 91.7833 99.6466 90.9735C100.035 90.169 100.418 89.3649 100.797 88.5557C101.258 87.5771 101.901 86.741 102.694 86.0106C104.602 84.2582 106.688 82.7379 108.751 81.1802C110.631 79.7611 112.781 78.9135 114.977 78.1698C116.142 77.774 117.39 77.6184 118.606 77.6966C120.365 77.8088 121.936 78.4778 123.173 79.8076C123.562 80.2247 123.988 80.6126 124.433 80.97C125.03 81.4488 125.513 81.9895 125.751 82.7345C125.811 82.9214 125.917 83.0965 126.023 83.2664C126.989 84.813 127.958 86.3594 128.934 87.9C129.169 88.2694 129.43 88.6262 129.698 88.9746C129.825 89.1428 129.977 89.3036 130.15 89.4207C130.862 89.9031 131.673 90.0542 132.51 89.9693C133.135 89.9072 133.56 89.4858 133.883 88.9678C134.639 87.7493 135.209 86.4462 135.592 85.0667C135.695 84.6956 135.785 84.3203 135.867 83.9431C135.942 83.5848 135.864 83.4703 135.495 83.4588C134.737 83.4347 133.977 83.4344 133.221 83.4338C132.622 83.4334 132.023 83.446 131.423 83.4615C131.108 83.4691 130.822 83.4008 130.548 83.2368C130.25 83.0618 129.94 82.9061 129.628 82.7584C129.163 82.5393 128.756 82.2498 128.395 81.8881C127.527 81.0218 126.652 80.1639 125.792 79.2917C125.514 79.0073 125.26 78.6972 125.016 78.3837C123.468 76.4148 121.931 74.4371 120.381 72.471C120.176 72.2121 119.933 71.9747 119.684 71.7588C119.279 71.406 118.938 71.0032 118.644 70.5546C117.883 69.3983 117.1 68.2543 116.335 67.101C115.588 65.9751 114.7 64.9658 113.801 63.9655C113.534 63.6696 113.255 63.3747 113.046 63.0399C112.586 62.2976 112.02 61.6481 111.416 61.0252C110.351 59.9256 109.253 58.8549 108.212 57.7323C107.624 57.1004 107.109 56.3993 106.579 55.7153C106.247 55.2829 105.934 54.841 105.54 54.4558C105.265 54.1869 105.032 53.8751 104.799 53.5659C102.933 51.0846 101.07 48.6031 99.215 46.1158C98.9047 45.7 98.6367 45.2544 98.3587 44.815C97.2489 43.0542 95.988 41.4032 94.675 39.7907C94.3213 39.3575 93.9824 38.9125 93.6361 38.4734C93.554 38.3699 93.4673 38.2745 93.3273 38.1074L93.3093 38.1116ZM132.191 80.1977C132.32 80.1976 132.396 80.1992 132.472 80.1955C133.417 80.149 134.361 80.0999 135.304 80.0562C135.636 80.0419 135.97 80.0484 136.301 80.0369C136.922 80.0198 136.95 79.978 137.103 79.3847C137.306 78.5981 137.501 77.8095 137.758 77.0394C137.978 76.3881 138.135 75.7419 138.117 75.0497C138.104 74.478 138.318 73.9506 138.581 73.4532C138.777 73.0824 139.274 73.0255 139.567 73.3297C139.774 73.5413 139.931 73.7884 139.966 74.0955C140.004 74.4261 140.055 74.7556 140.088 75.0866C140.189 76.0898 140.085 77.0837 139.924 78.0691C139.74 79.2115 139.492 80.3435 139.308 81.4885C139.135 82.5722 138.889 83.6304 138.433 84.6323C138.286 84.9545 138.074 85.2505 137.889 85.5574C137.753 85.7842 137.576 85.9932 137.477 86.2326C137.141 87.0591 136.84 87.8985 136.503 88.7251C136.344 89.1166 136.138 89.4909 135.938 89.8674C135.827 90.0789 135.674 90.2676 135.56 90.4767C134.878 91.7312 133.796 92.3093 132.401 92.3746C131.443 92.4169 130.52 92.2121 129.61 91.9561C129.29 91.8643 128.964 91.6732 128.724 91.4408C128.179 90.9156 127.675 90.3451 127.173 89.7769C127.025 89.6105 126.934 89.3947 126.818 89.2019C126.605 88.8491 126.417 88.4784 126.179 88.1459C125.104 86.6373 124.148 85.0556 123.234 83.4442C123.13 83.261 123.017 83.0681 122.859 82.934C122.067 82.2637 121.271 81.5937 120.451 80.9573C119.876 80.5135 119.199 80.3014 118.469 80.3354C117.804 80.3693 117.143 80.445 116.479 80.513C115.832 80.5769 115.252 80.835 114.664 81.0938C113.738 81.5013 112.784 81.8403 111.852 82.2326C111.425 82.4123 110.989 82.6008 110.614 82.863C109.96 83.319 109.366 83.8489 108.693 84.2881C107.915 84.7964 107.197 85.3996 106.465 85.9777C105.984 86.3564 105.509 86.7477 105.06 87.1605C104.481 87.6944 103.94 88.2751 103.59 88.9899C102.784 90.6276 101.979 92.2654 101.211 93.9184C100.766 94.8828 100.549 95.9149 100.574 96.9822C100.592 97.7427 100.78 98.4628 101.211 99.0946C101.932 100.154 102.824 101.04 103.942 101.686C104.657 102.1 105.416 102.35 106.248 102.378C107.297 102.412 108.318 102.236 109.326 101.974C110.411 101.693 111.445 101.263 112.47 100.818C112.896 100.633 113.309 100.418 113.71 100.182C114.272 99.8524 114.821 99.4996 115.363 99.1342C115.557 99.0026 115.707 98.8115 115.88 98.6475C116.034 98.5034 116.172 98.3343 116.344 98.2203C116.779 97.9268 117.176 97.6024 117.504 97.1891C117.687 96.9585 117.871 96.7305 118.063 96.5097C119.407 94.9667 120.547 93.2828 121.523 91.4838C121.612 91.3215 121.715 91.1606 121.846 91.0315C122.436 90.4494 123.236 90.6224 123.546 91.385C123.576 91.4588 123.598 91.5358 123.628 91.6095C123.827 92.1448 124.024 92.683 124.231 93.2177C124.288 93.3653 124.353 93.5228 124.457 93.6351C125.028 94.2475 125.587 94.8765 126.334 95.2957C126.623 95.4584 126.914 95.6367 127.158 95.8556C127.969 96.5847 128.897 97.1203 129.853 97.6299C130.876 98.176 131.952 98.3577 133.094 98.2765C133.585 98.2412 134.082 98.1818 134.566 98.2285C135.284 98.2953 135.868 98.1131 136.374 97.5956C137.065 96.8948 137.767 96.201 138.57 95.6197C138.687 95.5365 138.788 95.4178 138.862 95.2961C139.438 94.3499 139.968 93.3839 140.311 92.3229C140.713 91.081 141.136 89.8479 141.53 88.6041C141.647 88.2397 141.707 87.8538 141.784 87.477C141.855 87.1243 141.912 86.7701 141.978 86.4179C142.1 85.764 142.28 85.1159 142.341 84.4566C142.521 82.4422 142.66 80.4234 142.811 78.4061C142.875 77.5574 142.891 76.6995 143.021 75.8611C143.167 74.9268 143.311 73.9953 143.327 73.048C143.337 72.4613 143.585 71.9363 143.867 71.4349C144 71.2005 144.165 71.1685 144.411 71.2795C144.714 71.42 144.885 71.7107 144.825 72.0651C144.7 72.8111 144.782 73.5505 144.831 74.2954C144.861 74.7579 144.876 75.2244 144.846 75.6867C144.785 76.6324 144.744 77.5738 144.838 78.5198C144.881 78.9419 144.968 79.0057 145.368 78.949C146.383 78.8047 147.4 78.6839 148.411 78.5163C149.025 78.413 149.633 78.2577 150.234 78.0925C150.663 77.9729 150.719 77.8553 150.601 77.4132C150.517 77.0943 150.394 76.7813 150.268 76.4737C149.994 75.7948 149.69 75.1289 149.428 74.4464C149.096 73.5752 148.81 72.6897 148.655 71.7645C148.609 71.5003 148.629 71.2622 148.809 71.0529C148.982 70.8521 149.159 70.8007 149.366 70.9569C149.531 71.0799 149.687 71.2457 149.778 71.4274C150.607 73.0957 151.446 74.7605 152.227 76.4538C152.774 77.6357 153.276 78.8449 153.716 80.0697C154.145 81.2639 154.633 82.4244 155.272 83.5198C156.023 84.811 156.503 86.2033 156.74 87.6761C156.907 88.7133 157.08 89.7527 157.234 90.7935C157.376 91.7409 157.504 92.692 157.619 93.6415C157.695 94.2763 157.725 94.9176 157.798 95.5527C157.931 96.6872 158.116 97.8149 157.983 98.9715C157.915 99.5762 158.03 100.203 157.954 100.805C157.744 102.494 157.672 104.205 157.26 105.865C157.171 106.222 157.18 106.587 157.295 106.929C157.404 107.254 157.417 107.571 157.397 107.909C157.352 108.701 157.689 109.369 158.227 109.908C158.6 110.282 159.06 110.572 159.488 110.886C160.369 111.531 161.364 111.746 162.439 111.62C163.365 111.509 164.288 111.394 165.211 111.275C165.819 111.196 166.443 111.174 167.026 111.015C168.175 110.7 169.34 110.519 170.513 110.349C170.944 110.287 171.38 110.188 171.792 110.049C172.962 109.65 174.128 109.23 175.288 108.803C176.176 108.478 177.037 108.089 177.863 107.626C178.501 107.269 179.151 106.932 179.808 106.609C180.555 106.245 181.253 105.815 181.872 105.256C183.399 103.869 184.929 102.481 186.457 101.091C186.574 100.985 186.688 100.867 186.777 100.739C187.739 99.3144 188.643 97.8524 189.33 96.2691C189.493 95.8957 189.612 95.4891 189.671 95.0875C189.829 94.0155 189.767 94.1888 189.157 93.6034C188.512 92.9866 187.819 92.4553 186.913 92.2963C186.43 92.2127 185.939 92.1508 185.45 92.1202C184.774 92.0762 184.101 92.1082 183.43 91.9324C183.073 91.8384 182.654 91.8599 182.285 91.9377C180.999 92.2068 179.781 92.6674 178.667 93.3768C178.108 93.7357 177.568 94.1271 177.036 94.5258C175.138 95.9464 173.237 97.3594 171.25 98.656C170.597 99.083 169.97 99.5788 169.414 100.127C168.746 100.784 168.015 101.359 167.297 101.949C166.76 102.387 166.078 102.394 165.528 101.974C164.97 101.55 164.692 100.984 164.726 100.28C164.736 100.053 164.757 99.8282 164.773 99.6036C164.817 98.9956 164.671 98.4111 164.539 97.8283C164.221 96.4278 163.97 95.0087 163.428 93.6661C163.365 93.5058 163.309 93.3396 163.269 93.1721C163.057 92.2937 162.843 91.4128 162.649 90.5302C162.485 89.787 162.281 89.063 161.93 88.3799C161.714 87.9563 161.516 87.5075 161.407 87.0488C161.049 85.544 160.404 84.1915 159.435 82.9894C159.268 82.7824 159.104 82.5701 158.969 82.3395C158.641 81.778 158.336 81.2015 158.016 80.6341C157.816 80.2749 157.62 79.9127 157.397 79.5685C157.114 79.1321 156.802 78.7191 156.514 78.2857C155.902 77.3668 155.375 76.3908 154.661 75.5407C154.593 75.4595 154.53 75.3649 154.499 75.2677C154.196 74.31 153.623 73.5113 153.027 72.7223C152.626 72.1906 152.24 71.6471 151.878 71.0884C151.541 70.5697 151.815 70.0715 152.436 70.0149C152.801 69.9821 153.071 70.1333 153.306 70.4055C154.047 71.2613 154.795 72.1138 155.546 72.9583C155.757 73.1957 155.99 73.4103 156.246 73.673C156.391 73.393 156.524 73.1639 156.628 72.9241C156.99 72.0928 157.342 71.2598 157.696 70.4265C157.988 69.7376 158.227 69.0347 158.307 68.2845C158.388 67.5158 158.678 66.8245 159.064 66.1568C159.31 65.7344 159.512 65.2764 159.657 64.8124C159.97 63.8223 160.234 62.8178 160.519 61.8195C160.955 60.2962 161.386 58.7709 162.137 57.3583C162.362 56.9351 162.367 56.4617 162.35 55.9928C162.347 55.9222 162.296 55.8527 162.26 55.7612C162.083 55.8493 161.936 55.9403 161.775 55.9957C161.437 56.1103 161.097 56.2592 160.748 56.2959C160.144 56.359 159.573 56.506 159.01 56.718C158.711 56.8294 158.408 56.9412 158.094 56.9933C156.823 57.214 155.546 57.414 154.27 57.614C154.008 57.6541 153.736 57.7028 153.476 57.6743C152.999 57.6218 152.551 57.6983 152.103 57.843C151.322 58.094 150.523 58.21 149.702 58.107C149.519 58.0853 149.33 58.0878 149.145 58.1057C148.457 58.1678 147.768 58.2326 147.081 58.3078C146.63 58.3555 146.185 58.4395 145.733 58.4716C145.232 58.5078 144.725 58.5076 144.221 58.5203C143.783 58.5302 143.347 58.5321 142.91 58.5498C142.499 58.5654 142.088 58.6229 141.675 58.6176C141.092 58.6107 140.535 58.6803 140.018 58.9726C139.88 59.0497 139.727 59.1123 139.575 59.1485C139.196 59.2376 138.967 59.4799 138.864 59.8325C138.654 60.562 138.452 61.2934 138.268 62.0285C138.11 62.659 137.995 63.3017 137.842 63.9344C137.711 64.4786 137.556 65.0143 137.411 65.5544C136.983 67.1479 136.596 68.7537 136.119 70.3328C135.62 71.9899 135.019 73.6161 134.098 75.1031C133.924 75.3828 133.804 75.7003 133.693 76.0116C133.471 76.6368 133.285 77.2776 133.061 77.903C132.841 78.515 132.591 79.1189 132.355 79.7244C132.298 79.8683 132.247 80.0144 132.181 80.1986L132.191 80.1977ZM42.0134 87.2633C42.1369 87.0718 42.2607 86.917 42.3409 86.7423C42.7906 85.7618 43.2676 84.7923 43.663 83.7901C44.1952 82.4403 44.8744 81.1834 45.7431 80.0265C45.8141 79.9313 45.882 79.8311 45.9473 79.7311C46.5751 78.7754 47.3278 77.8987 47.7945 76.838C47.8255 76.7672 47.8862 76.707 47.9363 76.645C48.3457 76.1304 48.6475 75.5537 48.9052 74.9517C49.1102 74.475 49.3069 73.9937 49.5418 73.5302C49.8853 72.8528 50.2537 72.1918 50.6191 71.5258C50.7721 71.2477 50.9796 70.9915 51.1 70.7004C51.4312 69.9058 51.887 69.1903 52.3786 68.4928C53.5782 66.7936 54.7196 65.0571 55.6867 63.2142C56.2291 62.1788 56.6642 61.084 57.201 60.0438C58.0324 58.4354 58.9186 56.854 59.7638 55.2524C60.9203 53.0627 62.0988 50.8844 63.0088 48.5732C63.0565 48.4511 63.1174 48.3304 63.1815 48.2148C63.8386 47.0096 64.5043 45.8117 65.1532 44.602C65.7453 43.4995 66.3617 42.4054 66.8855 41.2717C67.3533 40.2557 67.772 39.2174 68.4323 38.3036C68.5879 38.0885 68.5937 37.8725 68.4973 37.6283C68.1858 36.8473 67.8391 36.0851 67.3762 35.3798C66.9646 34.7543 66.6025 34.0931 66.4369 33.3606C66.2262 32.4321 65.8091 31.6126 65.3025 30.8242C64.6544 29.8162 64.0062 28.8083 63.4957 27.718C63.3266 27.3562 63.1422 27.001 62.9478 26.6518C61.4801 24.0247 60.0124 21.3976 58.5373 18.7763C57.9305 17.6966 57.3063 16.6289 56.6871 15.5581C56.6196 15.4402 56.5194 15.3407 56.3964 15.188C56.301 15.3693 56.2314 15.4801 56.1782 15.6001C55.5627 16.991 54.8069 18.3067 54.0155 19.6044C53.6639 20.1826 53.3379 20.7849 53.0713 21.406C52.5903 22.5178 52.1692 23.6535 51.7071 24.7716C51.1183 26.1996 50.5405 27.6347 49.6752 28.928C49.6099 29.0279 49.5639 29.1395 49.5125 29.2488C49.1438 30.0334 48.7968 30.8266 48.4059 31.5972C48.1302 32.1403 47.7891 32.6545 47.486 33.184C47.2955 33.5177 47.1078 33.8538 46.9312 34.1968C46.635 34.7783 46.3745 35.3778 46.0561 35.9454C45.4517 37.0253 44.7951 38.078 44.1989 39.1625C43.0318 41.2873 41.9057 43.4324 40.7331 45.5551C39.8439 47.163 38.9107 48.7483 37.9966 50.3425C37.9161 50.4805 37.8357 50.6211 37.7356 50.745C37.3277 51.2464 37.0298 51.807 36.7791 52.3979C36.6563 52.6918 36.5338 52.9909 36.3807 53.269C36.2318 53.5335 36.0498 53.7798 35.8676 54.0234C35.655 54.3116 35.3978 54.5693 35.2099 54.8712C34.7252 55.6522 34.2739 56.4541 33.792 57.2375C33.4239 57.8381 33.0309 58.4249 32.6491 59.0188C32.5907 59.1077 32.522 59.1974 32.496 59.2968C32.2647 60.1541 31.7794 60.8642 31.2479 61.5544C30.8208 62.11 30.5227 62.731 30.3667 63.4192C30.2321 64.0162 30.0923 64.6137 29.9577 65.2108C29.8787 65.5589 29.8998 65.9092 30.0417 66.2285C30.4595 67.1504 30.8696 68.0756 31.3326 68.9728C31.7921 69.8597 32.3118 70.7127 32.8116 71.5779C33.6452 73.0172 34.504 74.444 35.3123 75.8959C36.3278 77.7248 37.3281 79.5603 38.596 81.2317C39.0679 81.8549 39.4412 82.5256 39.6962 83.2586C40.0404 84.2444 40.5286 85.1604 41.0242 86.0707C41.2659 86.5158 41.6166 86.8809 42.0115 87.2713L42.0134 87.2633ZM130.291 79.3273C130.532 78.9028 130.612 78.5047 130.654 78.0914C130.697 77.6673 130.749 77.2453 130.839 76.8306C130.978 76.1675 131.147 75.5098 131.308 74.8501C131.416 74.4025 131.611 74.0027 131.916 73.6517C132.062 73.4846 132.18 73.2831 132.276 73.0833C132.934 71.6968 133.47 70.2678 133.865 68.7822C134.316 67.0844 134.924 65.4341 135.296 63.7112C135.91 60.8675 135.567 61.5526 136.979 58.5353C137.162 58.1444 137.139 57.8021 136.863 57.4597C136.471 56.9718 136.096 56.4721 135.723 55.9694C135.345 55.4542 134.988 54.924 134.607 54.4116C133.499 52.9293 132.354 51.4736 131.279 49.9676C130.069 48.2755 128.789 46.6419 127.483 45.0261C126.974 44.3955 126.492 43.7417 125.995 43.0996C125.377 42.2993 124.781 41.4815 124.134 40.7047C123.317 39.7211 122.456 38.7754 121.619 37.8093C120.51 36.532 119.401 35.2573 118.304 33.9685C117.684 33.2393 117.064 32.505 116.496 31.7347C116.028 31.1033 115.611 30.4389 115.04 29.8896C114.84 29.6985 114.686 29.4564 114.513 29.2369C113.361 27.7897 112.206 26.3427 111.054 24.8956C110.556 24.272 110.035 23.6634 109.564 23.0191C107.958 20.8133 106.421 18.5572 104.994 16.2289C104.514 15.4461 103.999 14.6846 103.484 13.9231C103.257 13.5872 102.955 13.3073 102.652 13.004C101.84 14.6317 101.189 16.262 100.763 17.9735C100.453 19.2157 100.111 20.4421 99.6632 21.643C99.4656 22.177 99.3306 22.7373 99.2032 23.2943C98.9294 24.4652 98.5904 25.6098 98.0325 26.6807C97.783 27.1585 97.6547 27.6735 97.5991 28.2089C97.5172 28.9986 97.3168 29.7535 96.9412 30.4546C96.627 31.0402 96.3158 31.6308 95.9907 32.212C95.606 32.8981 95.2403 33.593 95.0193 34.3522C94.9925 34.4412 94.9635 34.5355 94.9062 34.6059C94.5957 34.981 94.5044 35.4353 94.3841 35.8866C94.2894 36.236 94.3693 36.5027 94.6113 36.7612C95.1213 37.305 95.6069 37.8718 96.1243 38.4098C97.8744 40.2253 99.3397 42.2825 100.989 44.1825C101.041 44.2439 101.084 44.3113 101.134 44.3729C102.828 46.4426 104.326 48.6679 106.095 50.6816C106.139 50.7305 106.178 50.7877 106.218 50.8369C106.747 51.4527 107.284 52.0627 107.801 52.6874C108.063 53.0046 108.299 53.3425 108.534 53.6804C108.776 54.0309 108.976 54.4138 109.24 54.7441C110.475 56.2789 111.708 57.8166 112.978 59.3224C113.974 60.5039 114.971 61.6906 116.06 62.7831C117.871 64.6041 119.464 66.5928 120.936 68.6889C121.347 69.2751 121.827 69.8134 122.283 70.3696C122.698 70.8739 123.122 71.3696 123.542 71.8684C123.859 72.2441 124.169 72.6258 124.489 72.9987C124.792 73.3521 125.114 73.6881 125.411 74.0471C125.691 74.384 125.94 74.7497 126.215 75.0896C126.674 75.6586 127.164 76.2067 127.603 76.7905C128.35 77.7824 129.342 78.5018 130.299 79.3293L130.291 79.3273ZM103.349 11.2989C103.594 11.4915 103.814 11.6809 104.051 11.8426C104.58 12.2062 105.088 12.5978 105.492 13.1004C106.494 14.3446 107.488 15.5972 108.469 16.8587C109.207 17.8015 109.922 18.7645 110.652 19.7132C110.935 20.0839 111.225 20.4488 111.521 20.8107C113.315 23.0062 115.105 25.2099 116.915 27.3937C117.758 28.4092 118.618 29.4075 119.34 30.5145C119.485 30.7364 119.647 30.9516 119.821 31.1526C120.63 32.0737 121.375 33.0422 122.123 34.0156C124.535 37.1664 126.98 40.2935 129.422 43.4235C130.912 45.3341 132.271 47.3475 133.884 49.1612C134.032 49.3276 134.141 49.5341 134.267 49.7207C134.333 49.8204 134.391 49.9259 134.472 50.0138C135.994 51.7326 137.347 53.5783 138.71 55.4206C139.012 55.8266 139.343 56.2117 139.686 56.5801C140.001 56.9194 140.129 56.9166 140.509 56.6436C140.759 56.4652 141.005 56.2899 141.318 56.2299C142.891 55.9292 144.483 55.8003 146.076 55.6845C146.927 55.622 147.776 55.5939 148.574 55.2285C148.774 55.1384 149.019 55.0814 149.233 55.1031C149.801 55.1613 150.349 55.0556 150.899 54.976C152.284 54.7802 153.669 54.5948 155.049 54.3888C155.654 54.2994 156.261 54.202 156.853 54.0506C157.625 53.8529 158.381 53.5881 159.148 53.3671C160.198 53.0649 161.252 52.7808 162.299 52.4815C162.694 52.3674 162.749 52.2419 162.556 51.8743C162.407 51.5923 162.247 51.3113 162.05 51.0647C161.236 50.0469 160.414 49.0296 159.574 48.0322C158.52 46.7793 157.416 45.5646 156.474 44.2209C155.822 43.2921 155.099 42.4243 154.294 41.6211C154.108 41.4368 153.976 41.1981 153.821 40.9823C153.637 40.7216 153.479 40.4377 153.27 40.2001C152.221 39.0099 151.16 37.8337 150.103 36.6519C150.004 36.5418 149.896 36.443 149.798 36.3355C149.538 36.0522 149.246 35.7899 149.031 35.474C148.432 34.5907 147.802 33.7337 147.055 32.9677C146.964 32.8728 146.879 32.7668 146.796 32.6632C145.479 30.9696 144.165 29.2783 142.846 27.5848C142.734 27.4391 142.602 27.3081 142.457 27.144C142.33 27.2859 142.215 27.3978 142.12 27.5213C141.691 28.0744 141.135 28.4461 140.479 28.6789C139.165 29.1475 137.841 29.1228 136.512 28.7491C136.372 28.7107 136.236 28.6432 136.116 28.5638C135.71 28.2951 135.705 27.8883 136.132 27.6455C136.368 27.5104 136.647 27.4216 136.916 27.3731C137.53 27.2672 138.137 27.0778 138.772 27.1961C138.81 27.2035 138.854 27.1947 138.892 27.1836C139.399 27.0261 139.91 26.8736 140.416 26.7082C140.664 26.6273 140.825 26.4406 140.837 26.1769C140.871 25.5014 140.947 24.8252 140.754 24.1527C140.473 23.1669 139.867 22.7283 138.864 22.8663C137.9 22.9985 136.944 23.1642 135.985 23.317C135.526 23.3891 135.065 23.4796 134.598 23.3869C134.202 23.3066 134.118 23.2348 134.096 22.845C134.068 22.3429 133.786 22.022 133.398 21.7414C133.2 21.8917 133.209 22.0933 133.196 22.2914C133.153 22.9807 133.151 23.6772 133.047 24.3585C132.892 25.3565 132.372 26.1457 131.472 26.6431C130.779 27.0262 130.028 27.2616 129.24 27.3556C127.861 27.522 126.631 27.1349 125.519 26.3308C123.906 25.166 122.715 23.6538 121.86 21.8668C121.324 20.7471 120.961 19.5632 120.6 18.3791C120.302 17.4053 120.099 16.4209 120.083 15.4001C120.071 14.6155 120.016 13.8265 120.357 13.0811C120.517 12.7289 120.661 12.3702 120.829 12.0226C121.157 11.3466 121.695 10.9316 122.426 10.7451C123.335 10.5151 124.222 10.5968 125.099 10.8817C125.777 11.1016 126.38 11.4643 126.969 11.8596C127.264 12.0586 127.402 12.0052 127.476 11.6602C127.648 10.8472 128.028 10.1379 128.514 9.47499C128.647 9.2959 128.762 9.10244 128.876 8.92486C128.834 8.86263 128.818 8.82457 128.792 8.79519C128.297 8.27641 127.802 7.75501 127.305 7.23905C127.15 7.07584 126.996 6.90459 126.822 6.76399C126.509 6.51129 126.151 6.44101 125.772 6.58795C125.499 6.69453 125.231 6.81394 124.971 6.94836C124.382 7.25194 123.765 7.42634 123.1 7.45239C122.715 7.46581 122.331 7.52642 121.948 7.56072C121.127 7.63906 120.305 7.7148 119.484 7.79053C119.259 7.80907 119.024 7.79694 118.811 7.85398C117.73 8.15351 116.637 8.3778 115.52 8.46745C114.726 8.53299 113.941 8.724 113.133 8.65144C112.953 8.63478 112.763 8.68205 112.579 8.71562C111.937 8.83694 111.299 8.97109 110.657 9.08457C109.595 9.27213 108.517 9.38747 107.496 9.74772C106.464 10.1088 105.424 10.426 104.351 10.646C103.966 10.725 103.664 10.9708 103.354 11.2907L103.349 11.2989ZM91.5816 37.7445C91.3246 37.7185 91.1522 37.6986 90.9801 37.6839C90.3291 37.6273 89.6843 37.6149 89.0397 37.7942C88.6597 37.9018 88.2524 37.9328 87.8544 37.95C87.0217 37.9846 86.1793 37.8702 85.3559 38.1117C85.2815 38.1336 85.1971 38.13 85.1184 38.1313C84.5216 38.1596 83.9214 38.1776 83.3258 38.2189C82.9939 38.2411 82.6675 38.297 82.3382 38.3504C81.3215 38.5106 80.2998 38.6108 79.2826 38.3848C78.7473 38.2661 78.2304 38.3062 77.7062 38.4493C77.4158 38.5285 77.1055 38.5567 76.8024 38.5765C76.2067 38.6178 75.6056 38.6254 75.0106 38.6746C73.617 38.7897 72.2248 38.9205 70.8238 38.7866C70.3893 38.7437 70.0776 38.9139 69.8759 39.3037C69.5678 39.8993 69.3566 40.5237 69.203 41.1775C69.0785 41.7054 68.9033 42.2244 68.7168 42.7337C68.5753 43.1212 68.3713 43.4822 68.2164 43.8655C67.501 45.6062 66.665 47.2859 65.6285 48.8613C65.4465 49.1391 65.2815 49.4312 65.1434 49.7317C64.5041 51.1219 63.8651 52.5147 63.2478 53.9162C62.6767 55.2088 62.0806 56.4851 61.2927 57.6669C60.9094 58.2424 60.5349 58.8304 60.2233 59.4473C59.1553 61.564 58.1119 63.6917 57.0633 65.8199C56.3546 67.2605 55.5317 68.6212 54.5015 69.8598C54.2436 70.1727 54.0567 70.5508 53.869 70.9184C53.5866 71.4751 53.3759 72.0732 53.0547 72.6068C52.3203 73.8314 51.6488 75.085 50.9914 76.3506C49.9827 78.2942 48.7388 80.0943 47.511 81.8984C46.8503 82.8699 46.2185 83.8417 45.7704 84.9376C45.4143 85.8105 44.9466 86.6374 44.5308 87.4889C44.4611 87.6313 44.4025 87.7806 44.36 87.9339C44.3088 88.1089 44.3974 88.2277 44.572 88.2422C44.7573 88.2584 44.9436 88.2562 45.1289 88.2409C45.8314 88.1881 46.5343 88.109 47.2414 88.2082C47.4195 88.2329 47.6126 88.1854 47.7901 88.1393C48.4595 87.9736 49.1225 87.7612 49.8004 87.6342C50.5432 87.4967 51.2946 87.4005 52.0634 87.4841C53.1241 87.6014 54.1888 87.5765 55.2525 87.4755C55.5966 87.4418 55.9427 87.4658 56.29 87.4713C56.8739 87.4782 57.4593 87.5034 58.0451 87.5023C59.0698 87.5018 60.094 87.496 61.12 87.4796C61.6369 87.471 62.1552 87.4151 62.6708 87.4224C63.481 87.4343 64.2932 87.4697 65.1041 87.5209C65.516 87.5447 65.8066 87.4366 66.033 87.0606C66.4719 86.3307 66.9661 85.633 67.4161 84.91C67.6412 84.5498 67.8491 84.1727 68.0086 83.7812C69.0732 81.1787 70.1844 78.5987 71.5772 76.1531C72.4538 74.6145 73.2757 73.0489 74.0477 71.4533C75.0121 69.4503 76.053 67.4831 77.0582 65.4977C77.2028 65.2125 77.3228 64.9162 77.4429 64.6199C77.4821 64.5221 77.478 64.4094 77.4927 64.3005C77.4653 64.287 77.4407 64.2759 77.4133 64.2624C77.2449 64.3866 77.0709 64.5061 76.9083 64.6378C76.5287 64.9398 76.117 65.1735 75.6333 65.266C75.0848 65.3691 74.5378 65.4905 73.9891 65.591C73.184 65.7363 72.3996 65.6881 71.6435 65.3459C71.4142 65.2414 71.1733 65.1562 70.9398 65.0651C69.905 64.6566 69.1353 63.9582 68.6054 62.9826C67.9825 61.8359 67.7146 60.5968 67.6499 59.3042C67.6282 58.8829 67.6707 58.4748 67.8308 58.0911C67.9099 57.9032 68.0448 57.7239 68.1965 57.5879C68.3726 57.4289 68.5898 57.4503 68.7188 57.6446C68.8539 57.8489 68.984 58.0878 69.0169 58.3268C69.1558 59.34 69.4817 60.2958 69.8588 61.2342C70.1594 61.9792 70.6707 62.5387 71.3917 62.9021C72.3293 63.3738 73.3228 63.5677 74.3688 63.5075C75.3183 63.4554 76.2365 63.2166 77.1618 63.0298C77.2237 63.0168 77.2738 62.9549 77.3384 62.9101C77.0998 62.7249 76.8752 62.5832 76.6866 62.3991C76.164 61.8931 76.2834 61.3341 76.9533 61.0475C77.3162 60.8914 77.6897 60.9604 78.0557 61.0011C78.7319 61.0766 79.3334 61.3606 79.9084 61.7046C80.7959 62.2383 81.7396 62.6254 82.753 62.8386C83.4188 62.978 84.0861 63.1042 84.7705 63.0556C85.1676 63.028 85.2473 62.8795 85.0696 62.5421C84.0305 60.5549 82.5778 58.9355 80.7192 57.6833C80.0625 57.2409 79.4662 56.7332 79.0028 56.0857C78.7147 55.6838 78.6843 55.6968 78.2103 55.8437C77.7955 55.9752 77.3616 56.1293 76.9362 56.1329C76.0198 56.1403 75.1415 55.908 74.3433 55.438C73.7468 55.0879 73.3016 54.5965 73.1196 53.9205C72.8433 52.8976 72.7147 51.8493 72.8773 50.7954C73.2459 48.3871 74.1058 46.1694 75.5453 44.1928C75.9369 43.6534 76.3539 43.1355 76.7568 42.6056C76.9632 42.3363 77.2108 42.1214 77.5193 41.9751C77.7594 41.8607 77.9931 41.731 78.2367 41.6268C79.1501 41.2334 80.0902 40.9718 81.102 41.038C82.4465 41.124 83.509 41.6774 84.1807 42.8752C84.3623 43.1965 84.4712 43.5606 84.6125 43.9037C84.6976 44.1068 84.7827 44.31 84.8811 44.5462C85.0716 44.4359 85.2224 44.3525 85.3675 44.2643C86.2082 43.7535 87.0982 43.4592 88.0991 43.5841C88.5001 43.6351 88.6778 43.5284 88.8481 43.1413C89.0448 42.6915 89.2437 42.2362 89.4078 41.7734C89.742 40.8262 90.1589 39.9246 90.7897 39.1316C90.9538 38.9236 91.1005 38.696 91.2314 38.4671C91.3555 38.2519 91.4494 38.0208 91.5816 37.7445ZM85.8354 35.6154L85.8335 35.5919C86.1281 35.5964 86.4235 35.5773 86.7125 35.6086C87.8158 35.7329 88.9161 35.6946 90.0222 35.5979C90.4554 35.5622 90.8984 35.6123 91.3341 35.6393C91.4926 35.6499 91.6446 35.7083 91.8023 35.7399C92.4571 35.875 92.6302 35.7109 92.5456 35.0374C92.4864 34.5746 92.247 34.1897 92.01 33.8021C90.633 31.5406 89.1982 29.3127 87.9511 26.9695C87.5091 26.1364 87.0596 25.3064 86.5874 24.4889C86.2747 23.9471 85.9145 23.4356 85.5841 22.9033C85.4809 22.7358 85.3691 22.5584 85.3246 22.3703C85.2377 21.986 85.0653 21.6481 84.862 21.3181C84.0168 19.9612 83.2095 18.5854 82.5501 17.1238C82.3762 16.7362 82.1566 16.368 81.9373 16.0026C81.4277 15.146 80.9003 14.2963 80.3884 13.4426C80.0533 12.8843 79.7355 12.3141 79.3976 11.7535C79.1235 11.2979 79.0078 11.2654 78.478 11.3407C78.0859 11.3968 77.6862 11.4245 77.291 11.444C76.773 11.4711 76.262 11.5185 75.7491 11.6397C75.0379 11.8088 74.3178 11.934 73.597 12.0514C72.7699 12.1854 71.9365 12.2752 71.1097 12.4118C70.0986 12.5768 69.0935 12.7833 68.0651 12.8341C67.9055 12.8421 67.7474 12.8683 67.5899 12.9023C65.9478 13.2534 64.2897 13.506 62.623 13.6857C61.8183 13.7732 61.0063 13.835 60.1958 13.852C59.8154 13.8598 59.4535 13.9002 59.0977 14.0137C58.7162 14.1345 58.6955 14.2019 58.8714 14.55C59.0979 15.0016 59.3143 15.4593 59.5432 15.9081C59.675 16.1678 59.8273 16.4206 59.9641 16.6773C60.0573 16.8509 60.1482 17.03 60.2288 17.2099C60.399 17.5847 60.5466 17.9719 60.7292 18.3378C61.1188 19.1096 61.5312 19.8717 61.9234 20.6433C62.5509 21.8789 63.1909 23.1056 63.9614 24.2585C64.3902 24.901 64.8538 25.5196 65.1197 26.257C65.1468 26.3309 65.1994 26.3949 65.2444 26.4621C65.8526 27.3998 66.4758 28.3284 67.0642 29.2808C67.4404 29.8909 67.7918 30.5187 68.1027 31.1657C68.3027 31.5827 68.4066 32.0444 68.5508 32.4871C68.9642 33.7378 69.6221 34.8947 69.9438 36.1819C70.0104 36.447 70.1308 36.5054 70.427 36.4967C70.7993 36.4869 71.1738 36.4718 71.544 36.4359C72.7507 36.3179 73.9543 36.1922 75.1578 36.0665C75.8196 35.9987 76.4835 35.957 77.1392 35.8476C77.8315 35.7353 78.5132 35.7184 79.2027 35.8585C79.9776 36.0152 80.7598 36.0373 81.5473 35.9643C82.9763 35.8331 84.4099 35.7252 85.84 35.6071L85.8354 35.6154ZM64.111 118.757L64.1089 118.731C64.362 118.71 64.6197 118.713 64.8654 118.666C65.9649 118.457 67.0571 118.225 68.1565 118.016C69.0308 117.849 69.9171 117.731 70.7901 117.549C72.0224 117.294 73.1996 116.882 74.2609 116.179C74.6819 115.9 75.1331 115.668 75.5627 115.399C76.2498 114.969 76.9716 114.579 77.6057 114.08C78.6642 113.249 79.6354 112.314 80.5408 111.315C80.8681 110.951 81.1056 110.551 81.2808 110.095C81.703 109.004 81.8498 107.854 82.0285 106.709C82.1368 106.017 82.1434 105.334 82.013 104.645C81.8635 103.854 81.604 103.129 80.9287 102.62C80.8026 102.525 80.7001 102.397 80.5882 102.283C80.2405 101.923 79.8262 101.71 79.3215 101.675C79.0838 101.661 78.845 101.633 78.6065 101.608C77.7665 101.523 76.9256 101.49 76.108 101.738C73.8933 102.41 71.6624 103.044 69.4792 103.81C67.9113 104.36 66.5726 105.361 65.2723 106.383C64.5421 106.958 63.8649 107.603 63.1668 108.217C62.8434 108.502 62.47 108.593 62.0545 108.525C61.1917 108.386 60.7241 107.91 60.5677 107.034C60.4889 106.589 60.3841 106.148 60.3053 105.703C60.2659 105.48 60.2234 105.252 60.2366 105.031C60.2811 104.36 60.1928 103.705 60.0911 103.046C59.9848 102.364 59.9666 101.666 59.7231 101.008C59.7131 100.983 59.7162 100.956 59.714 100.93C59.6319 99.555 59.2828 98.2228 59.0298 96.8774C58.8376 95.8554 58.7003 94.8289 58.6745 93.7852C58.6468 92.6551 58.598 91.524 58.5467 90.3932C58.5343 90.0842 58.4786 90.0467 58.1466 90.0347C57.788 90.0197 57.4294 90.0047 57.0687 89.995C56.4156 89.978 55.7646 89.953 55.1137 89.9621C54.754 89.9655 54.6557 90.0788 54.6852 90.4363C54.7389 91.0861 54.7695 91.7431 54.8932 92.3818C55.1519 93.732 55.2698 95.0965 55.3567 96.4661C55.4634 98.1389 55.5754 99.8138 55.6821 101.487C55.6915 101.633 55.6851 101.778 55.6789 101.926C55.6504 102.567 55.6765 103.2 55.8154 103.832C55.8952 104.194 55.9363 104.563 55.9799 104.933C56.0236 105.302 56.0466 105.676 56.085 106.046C56.1349 106.523 56.2213 106.997 56.2345 107.474C56.2855 109.301 56.4773 111.114 56.6589 112.93C56.7431 113.79 57.0503 114.519 57.593 115.173C57.8383 115.471 58.059 115.789 58.3019 116.089C58.4101 116.222 58.5314 116.354 58.6731 116.447C59.683 117.095 60.695 117.736 61.7116 118.369C62.127 118.627 62.5894 118.754 63.0767 118.769C63.4216 118.777 63.7674 118.765 64.114 118.762L64.111 118.757ZM38.5587 85.9328C38.3065 86.219 38.1019 86.4461 37.9054 86.6751C37.0877 87.6229 36.1084 88.3318 34.9077 88.7147C34.2241 88.9315 33.56 88.9075 32.9666 88.4678C32.0681 87.801 31.2858 87.0144 30.7949 86.0013C30.1682 84.713 29.4669 83.4441 29.3349 81.9731C29.3306 81.9209 29.3106 81.87 29.3009 81.8156C29.2377 81.3689 29.1326 80.923 29.1166 80.475C29.0694 79.0128 28.6423 77.7554 27.332 76.9387C27.1049 76.7972 26.8782 76.6609 26.6558 76.5137C26.3776 76.3265 26.0819 76.2774 25.745 76.3026C24.2806 76.4183 22.846 76.705 21.4084 76.9866C21.0412 77.059 20.6956 77.2636 20.3492 77.4288C20.0484 77.5719 19.7662 77.7502 19.471 77.8981C18.8175 78.2254 18.1395 78.51 17.5077 78.8775C16.3569 79.5453 15.2271 80.2456 14.1008 80.9561C13.5514 81.3036 13.1481 81.7968 12.88 82.3996C12.8001 82.577 12.6773 82.7448 12.5447 82.8897C11.6461 83.8757 10.8573 84.9498 10.0963 86.0427C9.78148 86.4943 9.55148 86.9863 9.42257 87.525C9.3639 87.769 9.28435 88.0147 9.17698 88.2416C8.87207 88.8764 8.80592 89.5387 8.87066 90.227C8.92786 90.824 9.19435 91.2828 9.71429 91.5972C10.3864 92.0041 11.0515 92.4221 11.7214 92.8345C12.0453 93.0337 12.394 93.152 12.7759 93.1625C13.1762 93.1741 13.5744 93.1911 13.9736 93.1897C14.3992 93.1887 14.8298 93.2162 15.2445 93.1478C16.004 93.022 16.755 92.8259 17.5093 92.669C18.4908 92.4645 19.3783 92.0759 20.1551 91.4284C21.1556 90.5943 21.901 89.5658 22.5033 88.4282C22.8328 87.8046 23.1211 87.1607 23.4367 86.5277C23.6823 86.0344 24.0983 85.8529 24.6296 85.9877C24.9866 86.0791 25.2418 86.305 25.4101 86.6248C25.9093 87.5794 26.4162 88.5307 26.8902 89.4979C27.3267 90.3919 27.8669 91.2065 28.5518 91.9277C29.7346 93.1726 31.1256 94.1087 32.6935 94.799C33.1189 94.9872 33.5557 95.0588 34.017 95.0128C34.3741 94.9781 34.734 94.9457 35.0909 94.9399C35.6104 94.9311 36.0878 94.7945 36.5275 94.519C36.7873 94.3557 37.0371 94.1669 37.3166 94.0518C37.9646 93.7855 38.4635 93.337 38.9321 92.8385C39.123 92.6362 39.3162 92.431 39.5069 92.2261C40.1317 91.5518 40.7567 90.8801 41.3759 90.2009C41.6455 89.9028 41.6358 89.8169 41.3041 89.6183C41 89.4359 40.7616 89.1902 40.5668 88.8988C40.1679 88.3012 39.7715 87.7007 39.3677 87.1061C39.1161 86.7328 38.857 86.3627 38.5581 85.9249L38.5587 85.9328ZM122.388 18.6439C122.638 18.266 122.831 17.9662 123.03 17.6713C123.777 16.5638 125.055 16.1692 126.292 16.6661C126.514 16.7554 126.726 16.8719 126.949 16.9534C127.398 17.1186 127.711 17.4317 127.941 17.8357C128.488 18.7943 128.711 19.8111 128.468 20.9058C128.411 21.1654 128.332 21.4215 128.28 21.6807C128.207 22.044 128 22.3055 127.707 22.511C127.479 22.6717 127.248 22.8301 127.031 23.0056C126.644 23.3213 126.211 23.4859 125.709 23.4827C125.52 23.4825 125.329 23.5246 125.045 23.5585C125.196 23.7274 125.268 23.8396 125.369 23.9128C125.901 24.3129 126.431 24.7158 126.98 25.0908C127.5 25.4472 128.093 25.5848 128.722 25.5696C128.921 25.5663 129.119 25.5736 129.317 25.5888C130.576 25.6845 131.551 24.8893 131.694 23.6347C131.748 23.173 131.778 22.7081 131.818 22.2423C131.869 21.6496 131.795 21.0776 131.576 20.5203C131.45 20.1997 131.356 19.8658 131.243 19.5389C131.154 19.2887 131.082 19.0266 130.955 18.7954C130.473 17.9209 129.984 17.0522 129.476 16.1928C129.086 15.5315 128.565 14.9859 127.934 14.5414C127.184 14.0122 126.424 13.4969 125.702 12.9312C125.064 12.4321 124.361 12.1855 123.564 12.1751C123.367 12.173 123.163 12.1583 122.975 12.2053C122.419 12.3432 122.122 12.7593 121.917 13.2597C121.748 13.6651 121.576 14.0682 121.396 14.4693C121.243 14.8104 121.204 15.1604 121.273 15.5226C121.449 16.4408 121.738 17.3261 122.113 18.1805C122.171 18.3098 122.257 18.4262 122.384 18.6363L122.388 18.6439ZM74.3587 51.3299C74.352 51.4724 74.3182 51.6039 74.3416 51.7281C74.4569 52.3281 74.5852 52.9271 74.7161 53.5259C74.7796 53.8176 74.992 53.9708 75.2639 54.0508C75.6466 54.1663 76.0332 54.2658 76.4117 54.3948C76.7334 54.5048 77.0279 54.4753 77.3409 54.3522C78.5747 53.8614 79.6204 53.0971 80.5639 52.1784C82.213 50.576 83.2917 48.6844 83.4984 46.3525C83.5831 45.4049 83.4865 44.4906 83.0683 43.6266C82.6912 42.8458 82.0536 42.4439 81.1945 42.4124C79.9297 42.3698 78.7739 42.7227 77.7287 43.4292C77.5668 43.5371 77.4189 43.686 77.3113 43.8473C76.9377 44.4141 76.5837 44.9952 76.2323 45.576C76.1537 45.7059 76.1084 45.8568 76.0156 46.0694C76.3853 46.0599 76.688 46.0664 76.9879 46.039C77.3946 46.0002 77.7833 46.0627 78.1686 46.178C78.9606 46.4147 79.4691 46.9403 79.6945 47.7283C80.1277 49.2506 79.8316 50.6282 78.8206 51.8442C78.1132 52.6961 77.1892 52.9932 76.1074 52.8749C75.6036 52.8193 75.2835 52.5384 75.0986 52.0807C75.0354 51.9204 74.9772 51.757 74.9015 51.603C74.807 51.4138 74.6647 51.281 74.3563 51.3328L74.3587 51.3299ZM130.114 14.3088C130.173 14.2277 130.219 14.1793 130.251 14.1214C130.785 13.1393 131.709 12.7136 132.966 12.9224C134.605 13.1969 136.036 14.5579 136.373 16.1828C136.474 16.6789 136.537 17.1835 136.331 17.6761C136.025 18.4028 135.571 19.0131 134.953 19.5083C134.48 19.8863 133.984 20.0612 133.405 19.7649C133.381 19.7538 133.356 19.7348 133.332 19.7368C133.233 19.7502 133.093 19.7407 133.046 19.7998C132.996 19.8618 133.005 20.0029 133.036 20.0949C133.061 20.1743 133.145 20.2435 133.218 20.2927C133.662 20.5818 134.116 20.8623 134.56 21.1514C134.844 21.3355 135.143 21.4895 135.488 21.4689C135.94 21.442 136.392 21.4099 136.839 21.3468C137.306 21.2793 137.637 21.0207 137.809 20.5598C138.077 19.8335 138.204 19.1057 138.027 18.3321C137.818 17.4245 137.697 16.4965 137.454 15.5995C137.265 14.8978 136.945 14.2307 136.686 13.5452C136.403 12.7961 135.969 12.1541 135.4 11.5941C134.29 10.4982 132.967 9.84811 131.408 9.70368C131.252 9.6903 131.086 9.69344 130.93 9.71421C129.81 9.85931 128.6 11.0208 128.429 12.4459C128.39 12.767 128.5 13.0548 128.761 13.2618C129.2 13.6066 129.646 13.9455 130.112 14.3064L130.114 14.3088ZM81.6632 53.3356C81.4763 53.4903 81.3157 53.6455 81.1319 53.7736C80.8712 53.9581 80.8282 54.2007 80.9246 54.4766C81.0567 54.8676 81.1965 55.2555 81.3541 55.6366C81.4003 55.751 81.4981 55.8848 81.6042 55.9286C82.1892 56.1719 82.788 56.3274 83.4268 56.1406C84.0782 55.9476 84.7275 55.7599 85.3828 55.5823C85.9918 55.4164 86.5013 55.0958 86.9229 54.6327C87.1205 54.4167 87.3066 54.1885 87.479 53.9535C88.563 52.4766 89.3049 50.8336 89.8307 49.0876C90.0288 48.4327 90.0967 47.7597 90.0189 47.0725C89.9195 46.1874 89.4609 45.5342 88.7332 45.0583C88.6054 44.9743 88.438 44.9198 88.2854 44.9166C87.5004 44.8921 86.747 45.0279 86.0671 45.4493C85.7971 45.6161 85.5367 45.8032 85.2671 45.9752C85.0528 46.1164 84.9348 46.3101 84.9087 46.5671C84.8741 46.9115 84.8289 47.2542 84.7969 47.5984C84.7662 47.8953 84.8416 47.981 85.1402 48.001C85.2854 48.01 85.4335 47.9899 85.5788 47.9989C86.0437 48.0288 86.4531 48.1816 86.6485 48.6384C86.9422 49.3314 87.1228 50.0548 87.062 50.8139C86.9856 51.7661 86.6519 52.6555 86.347 53.5452C86.1859 54.013 85.8493 54.3903 85.4172 54.6625C85.0726 54.8801 84.6861 54.9094 84.3027 54.9122C83.3126 54.9178 82.4745 54.6008 81.9259 53.7159C81.8501 53.5935 81.759 53.4775 81.658 53.3361L81.6632 53.3356Z" fill="#DDFFDC"/>
  <path d="M134.881 37.8778C134.509 37.8349 134.087 37.7804 133.666 37.7338C132.992 37.6581 132.317 37.5956 131.645 37.5066C131.371 37.4688 131.095 37.4023 130.839 37.2999C130.494 37.1628 130.164 36.9852 129.835 36.8127C129.475 36.6243 129.17 36.3684 128.947 36.0268C128.863 35.8971 128.793 35.7427 128.767 35.5924C128.712 35.2764 128.894 35.0354 129.216 35.0115C129.396 34.9966 129.59 35.0226 129.763 35.0793C130.939 35.4576 132.15 35.6072 133.38 35.6186C134.151 35.6259 134.927 35.701 135.691 35.6326C137.251 35.4933 138.585 34.8445 139.601 33.6281C140.302 32.7924 140.966 31.9231 141.661 31.0827C141.923 30.7641 142.223 30.4792 142.508 30.1797C142.571 30.1141 142.645 30.0502 142.722 30.0018C143.035 29.813 143.367 29.9485 143.41 30.3076C143.437 30.5392 143.429 30.7947 143.358 31.016C143.12 31.7635 142.916 32.5319 142.569 33.2305C142.132 34.1101 141.522 34.904 140.85 35.619C139.974 36.5506 138.851 37.1163 137.612 37.4157C137.007 37.5629 136.381 37.6277 135.764 37.7286C135.49 37.7749 135.212 37.8215 134.886 37.8773L134.881 37.8778Z" fill="#DDFFDC"/>
</svg>
