<svg fill="none" height="36" viewBox="0 0 187 36" width="187" xmlns="http://www.w3.org/2000/svg" xmlns:xlink="http://www.w3.org/1999/xlink"><linearGradient id="a"><stop offset="0" stop-color="#bff9b4"/><stop offset="1" stop-color="#80ee64"/></linearGradient><linearGradient id="b" gradientUnits="userSpaceOnUse" x1="28.3948" x2="18.4114" xlink:href="#a" y1="-52.5441" y2="-52.5441"/><linearGradient id="c"><stop offset="0" stop-color="#80ee64"/><stop offset=".18" stop-color="#7beb63"/><stop offset=".36" stop-color="#6fe562"/><stop offset=".55" stop-color="#5ada60"/><stop offset=".74" stop-color="#3dca5d"/><stop offset=".93" stop-color="#18b759"/><stop offset="1" stop-color="#09af58"/></linearGradient><linearGradient id="d" gradientUnits="userSpaceOnUse" x1="1.56903" x2="18.2372" xlink:href="#c" y1="31.906" y2="3.0067"/><linearGradient id="e" gradientUnits="userSpaceOnUse" x1="62.0531" x2="45.385" xlink:href="#a" y1="26.1845" y2="-2.7148"/><linearGradient id="f" gradientUnits="userSpaceOnUse" x1="51.9515" x2="35.2542" xlink:href="#c" y1="32.0227" y2="3.12346"/><path d="m108.176 4.75807h6.13v25.51313h-4.583v-18.1861l-7.064 18.1861h-4.1455l-7.0643-18.2153v18.2153h-4.583v-25.51313h6.1302l7.6186 19.67483 7.619-19.67483zm28.053 16.20113c0 1.8682-.409 3.5321-1.227 5.0209-.817 1.4595-1.955 2.6272-3.415 3.4445-1.459.8174-3.153 1.2261-5.021 1.2261s-3.619-.4087-5.079-1.2553c-1.46-.8465-2.598-1.985-3.415-3.4737-.818-1.4596-1.226-3.1235-1.226-4.9625 0-1.8391.408-3.5322 1.226-4.9917.817-1.4596 1.985-2.598 3.444-3.4446 1.46-.8465 3.153-1.2552 5.05-1.2552 1.898 0 3.562.4087 5.021 1.226 1.46.8174 2.598 1.985 3.415 3.4446.818 1.4596 1.227 3.1526 1.227 5.0209zm-4.408 0c0-1.1093-.205-2.131-.643-3.0067-.437-.8757-1.05-1.5763-1.868-2.0434-.788-.4671-1.722-.7006-2.744-.7006-1.021 0-1.956.2335-2.773.7006-.788.4671-1.43 1.1385-1.868 2.0142s-.672 1.8974-.672 3.0359c0 1.1384.234 2.1601.672 3.0359.438.8757 1.08 1.5471 1.868 2.0142.788.467 1.722.7005 2.773.7005s1.927-.2335 2.744-.7005c.788-.4671 1.431-1.1385 1.868-2.0142.438-.8758.643-1.8975.643-3.0359zm25.396-16.58061v25.86341h-4.408v-2.1602c-.584.7882-1.343 1.4012-2.306 1.8683-.934.467-2.073.7006-3.386.7006-1.693 0-3.211-.4087-4.525-1.1969-1.313-.7881-2.335-1.9266-3.065-3.3862-.73-1.4595-1.08-3.1818-1.08-5.1376s.35-3.6197 1.051-5.0793c.701-1.4595 1.693-2.598 2.977-3.4153 1.285-.8174 2.774-1.2261 4.496-1.2261 1.343 0 2.481.2044 3.444.6422.964.4379 1.752 1.0217 2.394 1.7807v-9.34118h4.408zm-4.262 16.58061c0-1.1093-.204-2.131-.613-3.0067s-.992-1.5763-1.751-2.0434-1.635-.7006-2.657-.7006c-1.08 0-1.985.2335-2.744.7006s-1.343 1.1677-1.751 2.0434c-.409.8757-.613 1.8974-.613 3.0067 0 1.1092.204 2.1309.613 3.0067.408.8757.992 1.5763 1.78 2.0434.789.467 1.693.7005 2.744.7005s1.869-.2335 2.628-.7005c.759-.4671 1.342-1.1677 1.78-2.0434.409-.8758.613-1.8975.613-3.0067zm25.601-9.2828v18.5948h-4.408v-2.1018c-.613.7882-1.372 1.4012-2.335 1.839-.935.4379-2.073.6714-3.387.6714-1.693 0-3.211-.4086-4.524-1.1968-1.314-.7882-2.336-1.9266-3.036-3.3862-.73-1.4595-1.08-3.1818-1.08-5.1376s.35-3.6197 1.051-5.0793c.7-1.4595 1.693-2.598 2.977-3.4154 1.285-.8173 2.773-1.226 4.496-1.226 1.372 0 2.539.2335 3.532.7006.992.4671 1.751 1.0801 2.306 1.839v-2.1601h4.408zm-4.262 9.2828c0-1.1093-.205-2.131-.613-3.0067-.409-.8757-.993-1.5763-1.752-2.0434s-1.634-.7006-2.656-.7006c-1.08 0-1.985.2335-2.744.7006s-1.343 1.1677-1.752 2.0434c-.408.8757-.613 1.8974-.613 3.0067 0 1.1092.205 2.1309.613 3.0067.409.8757.993 1.5763 1.781 2.0434.788.467 1.693.7005 2.744.7005s1.868-.2335 2.627-.7005c.759-.4671 1.343-1.1677 1.781-2.0434.409-.8758.613-1.8975.613-3.0067zm7.94-16.58061v25.86341h4.408v-25.86341z" fill="#dfffdd"/><path d="m27.1396.729779 6.3345 10.946721-13.0485 22.6231c-.2627.4379-.7297.7298-1.2552.7298h-11.79321c-.26272 0-.52544-.0584-.72978-.2043-.20434-.1168-.40868-.3211-.52544-.5255l-5.896609-10.2169c-.2627208-.4378-.2627208-1.0217 0-1.4595l12.639739-21.893421c.1168-.233529.3211-.408677.5255-.525442.2043-.1167644.467-.204337.7298-.204337h11.7932c.5254 0 .9925.291912 1.2552.729779zm39.6124 21.893421-12.6397-21.893421c-.1168-.233529-.3211-.408677-.5255-.525442-.2043-.1167644-.467-.204337-.7298-.204337h-11.7932c-.5254 0-.9925.291912-1.2552.729779l-6.3345 10.946721 13.0485 22.6231c.2627.4379.7297.7298 1.2552.7298h11.7932c.2627 0 .5255-.0584.7298-.2043.2043-.1168.4087-.3211.5254-.5255l5.8967-10.2169c.2627-.4378.2627-1.0217 0-1.4595z" fill="#62de61"/><path d="m19.9877 11.6765h13.4863l-6.3344-10.946721c-.2628-.437867-.7298-.729779-1.2553-.729779h-11.7932c-.2627 0-.5254.0583815-.7298.204337z" fill="url(#b)"/><path d="m19.9887 11.6765-6.6264-11.472154c-.2044.116764-.4087.321104-.5255.525442l-12.63976 21.893412c-.2627202.4378-.2627202 1.0217 0 1.4595l5.89663 10.2169c.11677.2336.3211.4087.52544.5255z" fill="url(#d)"/><path d="m33.475 11.6765h-13.4863l-13.36956 23.1486c.20434.1168.46706.2044.72978.2044h11.79318c.5255 0 .9925-.292 1.2553-.7298l13.0484-22.6232z" fill="#09af58"/><path d="m66.7539 24.0827c.1168-.2335.2044-.4671.2044-.7298h-13.2528l-6.6264 11.4721c.2043.1168.4671.2044.7298.2044h11.7932c.5254 0 .9925-.2919 1.2552-.7298z" fill="#09af58"/><path d="m41.0354 0c-.2627 0-.5254.0583815-.7297.204337l13.3695 23.148563h13.2528c0-.2627-.0584-.4962-.2043-.7297l-12.6398-21.893421c-.2627-.437867-.7298-.729779-1.2552-.729779z" fill="url(#e)"/><path d="m47.0474 34.8251 6.6264-11.4722-13.3695-23.148554c-.2044.116764-.4087.321104-.5255.525442l-6.3345 10.946712 13.0485 22.6231c.1168.2336.3211.4087.5254.5255z" fill="url(#f)"/></svg>