<svg width="1728" height="624" viewBox="0 0 1728 624" fill="none" xmlns="http://www.w3.org/2000/svg">
<g filter="url(#filter0_f_167_8525)">
<path d="M1077.15 107.193C876.122 19.7765 618.327 134.661 446.239 211.351L370.013 65.0227L1416.37 -144.696L2102.88 233.378C1420.26 550.344 1283.87 197.08 1077.15 107.193Z" fill="#468265" fill-opacity="0.5"/>
<path d="M842.285 -98.4561C651.368 -202.875 13.5134 -220.96 4.15939 -221.22L1872 -169.684L1852.45 119.725C1144.02 373.833 1040.05 9.70894 842.285 -98.4561Z" fill="#1E9C4C" fill-opacity="0.5"/>
<g style="mix-blend-mode:lighten">
<path d="M831.802 55.5873C634.864 -40.6959 302.575 -86.9853 127.241 -18.0361L807.431 -285.518L1559.32 -192.33L1850.89 227.332C1154.83 513.58 1034.31 154.593 831.802 55.5873Z" fill="#7FEE64" fill-opacity="0.5"/>
<path d="M831.802 55.5873C634.864 -40.6959 302.575 -86.9853 127.241 -18.0361L807.431 -285.518L1559.32 -192.33L1850.89 227.332C1154.83 513.58 1034.31 154.593 831.802 55.5873Z" fill="black" fill-opacity="0.2"/>
</g>
<g style="mix-blend-mode:hue">
<path d="M526.621 95.6119C311.805 51.9165 -173.828 201.431 -173.828 201.431L417.301 -228.419L1282.3 -326.278L1409.34 -11.5307C807.569 440.472 747.511 140.543 526.621 95.6119Z" fill="#6FB811" fill-opacity="0.5"/>
<path d="M526.621 95.6119C311.805 51.9165 -173.828 201.431 -173.828 201.431L417.301 -228.419L1282.3 -326.278L1409.34 -11.5307C807.569 440.472 747.511 140.543 526.621 95.6119Z" fill="black" fill-opacity="0.4"/>
</g>
<path d="M1914.9 -9.02941C1248.59 340.933 960.895 -70.8118 960.895 -70.8118L1338.73 -249.872L1914.9 -9.02941Z" fill="#E9FC0E" fill-opacity="0.4"/>
<path d="M1914.9 -9.02941C1248.59 340.933 960.895 -70.8118 960.895 -70.8118L1338.73 -249.872L1914.9 -9.02941Z" fill="black" fill-opacity="0.5"/>
</g>
<defs>
<filter id="filter0_f_167_8525" x="-398.144" y="-550.594" width="2725.34" height="1137.8" filterUnits="userSpaceOnUse" color-interpolation-filters="sRGB">
<feFlood flood-opacity="0" result="BackgroundImageFix"/>
<feBlend mode="normal" in="SourceGraphic" in2="BackgroundImageFix" result="shape"/>
<feGaussianBlur stdDeviation="112.158" result="effect1_foregroundBlur_167_8525"/>
</filter>
</defs>
</svg>
