<svg class=" h-8 w-8   inline-block  " style="width:2rem;height:2rem;margin-right:2rem;" xmlns="http://www.w3.org/2000/svg" fill="currentColor"
    viewBox="0 0 93 90">
    <path
        d="M44.0471 0H31.0006C28.3399 0 25.997 1.75225 25.2451 4.30449L2.26702 82.3045C1.13478 86.1479 4.01575 90 8.02249 90H21.776C24.4553 90 26.8098 88.2236 27.5454 85.6473L49.8165 7.64732C50.9108 3.81465 48.0329 0 44.0471 0Z"
        fill="#3F9447"></path>
    <path
        d="M61.8267 39H51.7524C49.9425 39 48.3581 40.2153 47.8891 41.9634L36.3514 84.9634C35.6697 87.5042 37.5841 90 40.2148 90H50.644C52.4654 90 54.0568 88.7695 54.5153 87.0068L65.6979 44.0068C66.3568 41.4731 64.4446 39 61.8267 39Z"
        fill="#D9D9D9"></path>
    <path
        d="M90.1629 84.234L77.2698 58.0311C77.0912 57.668 76.8537 57.337 76.5672 57.0514C74.5514 55.0426 71.1154 55.9917 70.4166 58.7504L63.7622 85.0177C63.1219 87.5453 65.0322 90 67.6397 90H86.5738C89.5362 90 91.4707 86.8921 90.1629 84.234Z"
        fill="#3F9447"></path>
</svg>