<svg width="80" height="80" viewBox="0 0 80 80" fill="none" xmlns="http://www.w3.org/2000/svg">
<rect x="6" y="6" width="68" height="68" rx="8" fill="#0C0F0B"/>
<path fill-rule="evenodd" clip-rule="evenodd" d="M23.6445 24.5H35.8066L41.7137 35.2101L30.4842 55.5H18.3186L12.2805 44.6624L23.6445 24.5ZM24.5067 29.0802L15.7195 44.6709L19.1956 50.9102L27.8863 35.2076L24.5067 29.0802ZM30.4842 36.7089L21.7446 52.5H28.7158L37.4554 36.7089H30.4842ZM37.4597 33.7089H30.4857L27.0613 27.5H34.0352L37.4597 33.7089Z" fill="#9AEE86"/>
<path fill-rule="evenodd" clip-rule="evenodd" d="M68.2429 44.5208L62.1448 55.083L50.0712 54.994L38.5262 35.2663L44.626 24.7011L56.8736 24.7381L68.2429 44.5208ZM63.9086 42.9999L55.1345 27.7328L48.1109 27.7116L57.0282 42.9492L63.9086 42.9999ZM54.4293 44.448L45.4992 29.1885L41.9962 35.2561L50.9262 50.5155L54.4293 44.448ZM53.5221 52.0193L57.0267 45.9493L63.9247 46.0001L60.4202 52.0702L53.5221 52.0193Z" fill="#9AEE86"/>
</svg>
