<svg width="150" height="34" viewBox="0 0 150 34" fill="none" xmlns="http://www.w3.org/2000/svg">
  <g id="Combination Mark" clip-path="url(#clip0_1052_20)">
    <path id="Vector" fill-rule="evenodd" clip-rule="evenodd" d="M12.4817 1.02002H25.0591L31.2039 11.8463L19.1614 32.9903H6.58184L0.296875 22.0283L12.4817 1.02002ZM12.9962 3.75274L2.39334 22.0336L7.10533 30.2519L17.589 11.8447L12.9962 3.75274ZM19.1614 12.7536L8.67014 31.1741H18.1057L28.597 12.7536H19.1614ZM28.5997 10.9374H19.1623L14.5643 2.83616H24.0017L28.5997 10.9374Z" fill="#7FEE64"/>
    <path id="Vector_2" fill-rule="evenodd" clip-rule="evenodd" d="M60.0887 22.1654L53.7998 33.058L41.3518 32.9661L29.0615 11.965L35.3514 1.0708L47.9874 1.10891L60.0887 22.1654ZM57.4647 21.2447L46.9344 2.92189L37.4612 2.8933L48.1606 21.1761L57.4647 21.2447ZM46.5873 22.0834L35.8801 3.78738L31.1622 11.9588L41.8694 30.255L46.5873 22.0834ZM43.441 31.1651L48.1596 22.9923L57.4744 23.0609L52.7558 31.2337L43.441 31.1651Z" fill="#7FEE64"/>
    <g id="Modal">
      <path d="M82.058 21.6399L85.703 6.68018H91.5249V25.6646H88.4874V8.67986L89.2468 9.43924H87.0193L87.9812 8.65455L83.6274 25.6646H80.1849L75.9577 8.65455L76.8943 9.43924H74.6668L75.4262 8.67986V25.6646H72.3887V6.68018H78.2359L81.8049 21.6399L81.2987 21.2602H82.5137L82.058 21.6399Z" fill="white"/>
      <path d="M101.319 25.9177C100.29 25.9177 99.3192 25.7321 98.4079 25.3608C97.4967 24.9727 96.6951 24.4496 96.0033 23.7914C95.3283 23.1164 94.7967 22.3317 94.4086 21.4374C94.0204 20.543 93.8264 19.5896 93.8264 18.5771C93.8264 17.5646 94.0204 16.6196 94.4086 15.7421C94.7967 14.8477 95.3283 14.063 96.0033 13.388C96.6951 12.713 97.4967 12.1899 98.4079 11.8186C99.3192 11.4305 100.29 11.2364 101.319 11.2364C102.348 11.2364 103.31 11.4305 104.205 11.8186C105.116 12.1899 105.909 12.713 106.584 13.388C107.276 14.063 107.816 14.8477 108.204 15.7421C108.592 16.6196 108.786 17.5646 108.786 18.5771C108.786 19.5896 108.592 20.543 108.204 21.4374C107.816 22.3317 107.276 23.1164 106.584 23.7914C105.909 24.4496 105.116 24.9727 104.205 25.3608C103.31 25.7321 102.348 25.9177 101.319 25.9177ZM101.319 23.0827C102.095 23.0827 102.812 22.8971 103.47 22.5258C104.129 22.1377 104.643 21.6061 105.015 20.9311C105.403 20.2561 105.597 19.4714 105.597 18.5771C105.597 17.6827 105.403 16.898 105.015 16.223C104.643 15.548 104.129 15.0249 103.47 14.6536C102.812 14.2655 102.095 14.0714 101.319 14.0714C100.526 14.0714 99.8001 14.2655 99.142 14.6536C98.5008 15.0249 97.9776 15.548 97.5726 16.223C97.1845 16.898 96.9904 17.6827 96.9904 18.5771C96.9904 19.4714 97.1845 20.2561 97.5726 20.9311C97.9776 21.6061 98.5008 22.1377 99.142 22.5258C99.8001 22.8971 100.526 23.0827 101.319 23.0827Z" fill="white"/>
      <path d="M124.49 25.6646H121.453V6.68018H124.49V25.6646ZM116.492 25.9177C115.547 25.9177 114.669 25.7321 113.859 25.3608C113.066 24.9727 112.357 24.4496 111.733 23.7914C111.125 23.1164 110.644 22.3402 110.29 21.4627C109.936 20.5683 109.758 19.6149 109.758 18.6024C109.758 17.573 109.936 16.6196 110.29 15.7421C110.644 14.8477 111.125 14.063 111.733 13.388C112.357 12.713 113.066 12.1899 113.859 11.8186C114.669 11.4305 115.547 11.2364 116.492 11.2364C117.453 11.2364 118.339 11.4305 119.149 11.8186C119.959 12.1899 120.651 12.713 121.225 13.388C121.816 14.063 122.271 14.8477 122.592 15.7421C122.912 16.6196 123.073 17.5646 123.073 18.5771C123.073 19.5896 122.912 20.543 122.592 21.4374C122.271 22.3317 121.816 23.1164 121.225 23.7914C120.651 24.4496 119.959 24.9727 119.149 25.3608C118.339 25.7321 117.453 25.9177 116.492 25.9177ZM117.175 23.0827C117.968 23.0827 118.685 22.8971 119.327 22.5258C119.985 22.1546 120.499 21.6314 120.871 20.9564C121.259 20.2646 121.453 19.4714 121.453 18.5771C121.453 17.6658 121.259 16.8811 120.871 16.223C120.499 15.548 119.985 15.0249 119.327 14.6536C118.685 14.2655 117.968 14.0714 117.175 14.0714C116.399 14.0714 115.69 14.2655 115.049 14.6536C114.407 15.0249 113.893 15.548 113.505 16.223C113.133 16.8811 112.948 17.6742 112.948 18.6024C112.948 19.4799 113.133 20.2646 113.505 20.9564C113.893 21.6314 114.407 22.1546 115.049 22.5258C115.69 22.8971 116.399 23.0827 117.175 23.0827Z" fill="white"/>
      <path d="M141.337 25.6646H138.299V11.4896H141.337V25.6646ZM133.338 25.9177C132.393 25.9177 131.516 25.7321 130.706 25.3608C129.913 24.9727 129.204 24.4496 128.579 23.7914C127.972 23.1164 127.491 22.3402 127.137 21.4627C126.782 20.5683 126.605 19.6149 126.605 18.6024C126.605 17.573 126.782 16.6196 127.137 15.7421C127.491 14.8477 127.972 14.063 128.579 13.388C129.204 12.713 129.913 12.1899 130.706 11.8186C131.516 11.4305 132.393 11.2364 133.338 11.2364C134.3 11.2364 135.186 11.4305 135.996 11.8186C136.806 12.1899 137.498 12.713 138.072 13.388C138.662 14.063 139.118 14.8477 139.439 15.7421C139.759 16.6196 139.919 17.5646 139.919 18.5771C139.919 19.5896 139.759 20.543 139.439 21.4374C139.118 22.3317 138.662 23.1164 138.072 23.7914C137.498 24.4496 136.806 24.9727 135.996 25.3608C135.186 25.7321 134.3 25.9177 133.338 25.9177ZM134.022 23.0827C134.815 23.0827 135.532 22.8971 136.173 22.5258C136.831 22.1546 137.346 21.6314 137.717 20.9564C138.105 20.2646 138.299 19.4714 138.299 18.5771C138.299 17.6658 138.105 16.8811 137.717 16.223C137.346 15.548 136.831 15.0249 136.173 14.6536C135.532 14.2655 134.815 14.0714 134.022 14.0714C133.245 14.0714 132.537 14.2655 131.895 14.6536C131.254 15.0249 130.739 15.548 130.351 16.223C129.98 16.8811 129.794 17.6742 129.794 18.6024C129.794 19.4799 129.98 20.2646 130.351 20.9564C130.739 21.6314 131.254 22.1546 131.895 22.5258C132.537 22.8971 133.245 23.0827 134.022 23.0827Z" fill="white"/>
      <path d="M147.654 25.6646H144.616V6.68018H147.654V25.6646Z" fill="white"/>
    </g>
  </g>
  <defs>
    <clipPath id="clip0_1052_20">
      <rect width="150" height="33.296" fill="white" transform="translate(0 0.352051)"/>
    </clipPath>
  </defs>
</svg>
