<svg width="45" height="25" viewBox="0 0 45 25" fill="none" xmlns="http://www.w3.org/2000/svg">
  <g id="Combination Mark" clip-path="url(#clip0_717_7166)">
    <path id="Vector" fill-rule="evenodd" clip-rule="evenodd" d="M9.36126 0.514893H18.7944L23.4029 8.63459L14.371 24.4926H4.93638L0.222656 16.2711L9.36126 0.514893ZM9.74717 2.56444L1.79501 16.2751L5.329 22.4388L13.1917 8.63343L9.74717 2.56444ZM14.371 9.31507L6.5026 23.1305H13.5793L21.4478 9.31507H14.371ZM21.4498 7.95296H14.3717L10.9232 1.877H18.0012L21.4498 7.95296Z" fill="#7FEE64"/>
    <path id="Vector_2" fill-rule="evenodd" clip-rule="evenodd" d="M45.0665 16.3739L40.3498 24.5434L31.0138 24.4745L21.7961 8.72363L26.5136 0.552979L35.9906 0.581558L45.0665 16.3739ZM43.0985 15.6834L35.2008 1.94129L28.0959 1.91985L36.1205 15.632L43.0985 15.6834ZM34.9405 16.3125L26.9101 2.59041L23.3716 8.71902L31.402 22.4412L34.9405 16.3125ZM32.5808 23.1237L36.1197 16.9941L43.1058 17.0456L39.5669 23.1752L32.5808 23.1237Z" fill="#7FEE64"/>
  </g>
  <defs>
    <clipPath id="clip0_717_7166">
      <rect width="45" height="25" fill="white"/>
    </clipPath>
  </defs>
</svg>
